%TF.GenerationSoftware,KiCad,Pcbnew,8.0.8*%
%TF.CreationDate,2025-02-20T08:22:17+09:00*%
%TF.ProjectId,kicad_patchBox,6b696361-645f-4706-9174-6368426f782e,rev?*%
%TF.SameCoordinates,Original*%
%TF.FileFunction,Soldermask,Bot*%
%TF.FilePolarity,Negative*%
%FSLAX46Y46*%
G04 Gerber Fmt 4.6, Leading zero omitted, Abs format (unit mm)*
G04 Created by KiCad (PCBNEW 8.0.8) date 2025-02-20 08:22:17*
%MOMM*%
%LPD*%
G01*
G04 APERTURE LIST*
%ADD10R,1.600000X1.600000*%
%ADD11O,1.600000X1.600000*%
%ADD12C,1.400000*%
%ADD13O,1.400000X1.400000*%
%ADD14C,1.600000*%
%ADD15R,1.700000X1.700000*%
%ADD16O,1.700000X1.700000*%
%ADD17C,1.440000*%
G04 APERTURE END LIST*
D10*
%TO.C,U4*%
X165100000Y-43180000D03*
D11*
X165100000Y-45720000D03*
X165100000Y-48260000D03*
X165100000Y-50800000D03*
X172720000Y-50800000D03*
X172720000Y-48260000D03*
X172720000Y-45720000D03*
X172720000Y-43180000D03*
%TD*%
D12*
%TO.C,R9*%
X170180000Y-60960000D03*
D13*
X162560000Y-60960000D03*
%TD*%
D12*
%TO.C,R4*%
X160020000Y-76200000D03*
D13*
X160020000Y-68580000D03*
%TD*%
D12*
%TO.C,R12*%
X160020000Y-43180000D03*
D13*
X160020000Y-50800000D03*
%TD*%
D12*
%TO.C,R5*%
X149860000Y-50800000D03*
D13*
X157480000Y-50800000D03*
%TD*%
D12*
%TO.C,R1*%
X172720000Y-76200000D03*
D13*
X172720000Y-68580000D03*
%TD*%
D10*
%TO.C,C3*%
X177760000Y-104140000D03*
D14*
X175260000Y-104140000D03*
%TD*%
D10*
%TO.C,U5*%
X162560000Y-109220000D03*
D11*
X165100000Y-109220000D03*
X167640000Y-109220000D03*
X170180000Y-109220000D03*
X170180000Y-101600000D03*
X167640000Y-101600000D03*
X165100000Y-101600000D03*
X162560000Y-101600000D03*
%TD*%
D12*
%TO.C,R8*%
X149860000Y-63500000D03*
D13*
X157480000Y-63500000D03*
%TD*%
D12*
%TO.C,R11*%
X157480000Y-43180000D03*
D13*
X149860000Y-43180000D03*
%TD*%
D12*
%TO.C,R7*%
X149860000Y-60960000D03*
D13*
X157480000Y-60960000D03*
%TD*%
D15*
%TO.C,J1*%
X157480000Y-111760000D03*
D16*
X157480000Y-114300000D03*
%TD*%
D10*
%TO.C,U2*%
X149860000Y-88900000D03*
D11*
X149860000Y-86360000D03*
X149860000Y-83820000D03*
X149860000Y-81280000D03*
X142240000Y-81280000D03*
X142240000Y-83820000D03*
X142240000Y-86360000D03*
X142240000Y-88900000D03*
%TD*%
D17*
%TO.C,RV2*%
X182880000Y-86360000D03*
X185420000Y-88900000D03*
X187960000Y-86360000D03*
%TD*%
D10*
%TO.C,U3*%
X139700000Y-48255000D03*
D11*
X139700000Y-50795000D03*
X139700000Y-53335000D03*
X139700000Y-55875000D03*
X139700000Y-58415000D03*
X139700000Y-60955000D03*
X139700000Y-63495000D03*
X147320000Y-63495000D03*
X147320000Y-60955000D03*
X147320000Y-58415000D03*
X147320000Y-55875000D03*
X147320000Y-53335000D03*
X147320000Y-50795000D03*
X147320000Y-48255000D03*
%TD*%
D10*
%TO.C,U1*%
X160020000Y-86360000D03*
D11*
X162560000Y-86360000D03*
X165100000Y-86360000D03*
X167640000Y-86360000D03*
X170180000Y-86360000D03*
X172720000Y-86360000D03*
X175260000Y-86360000D03*
X175260000Y-78740000D03*
X172720000Y-78740000D03*
X170180000Y-78740000D03*
X167640000Y-78740000D03*
X165100000Y-78740000D03*
X162560000Y-78740000D03*
X160020000Y-78740000D03*
%TD*%
D17*
%TO.C,RV4*%
X137160000Y-73660000D03*
X139700000Y-71120000D03*
X137160000Y-68580000D03*
%TD*%
D12*
%TO.C,R3*%
X162560000Y-76200000D03*
D13*
X162560000Y-68580000D03*
%TD*%
D10*
%TO.C,C1*%
X175260000Y-111720000D03*
D14*
X175260000Y-109220000D03*
%TD*%
D10*
%TO.C,C2*%
X157480000Y-101600000D03*
D14*
X154980000Y-101600000D03*
%TD*%
D17*
%TO.C,RV1*%
X182880000Y-76200000D03*
X185420000Y-78740000D03*
X187960000Y-76200000D03*
%TD*%
D12*
%TO.C,R10*%
X170180000Y-63500000D03*
D13*
X177800000Y-63500000D03*
%TD*%
D17*
%TO.C,RV3*%
X137160000Y-40640000D03*
X139700000Y-43180000D03*
X142240000Y-40640000D03*
%TD*%
D12*
%TO.C,R2*%
X175260000Y-76200000D03*
D13*
X175260000Y-68580000D03*
%TD*%
D12*
%TO.C,R6*%
X149860000Y-48260000D03*
D13*
X157480000Y-48260000D03*
%TD*%
M02*
