%TF.GenerationSoftware,KiCad,Pcbnew,8.0.8*%
%TF.CreationDate,2025-02-20T08:22:17+09:00*%
%TF.ProjectId,kicad_patchBox,6b696361-645f-4706-9174-6368426f782e,rev?*%
%TF.SameCoordinates,Original*%
%TF.FileFunction,Legend,Top*%
%TF.FilePolarity,Positive*%
%FSLAX46Y46*%
G04 Gerber Fmt 4.6, Leading zero omitted, Abs format (unit mm)*
G04 Created by KiCad (PCBNEW 8.0.8) date 2025-02-20 08:22:17*
%MOMM*%
%LPD*%
G01*
G04 APERTURE LIST*
%ADD10C,0.150000*%
%ADD11C,0.120000*%
G04 APERTURE END LIST*
D10*
X168148095Y-40304819D02*
X168148095Y-41114342D01*
X168148095Y-41114342D02*
X168195714Y-41209580D01*
X168195714Y-41209580D02*
X168243333Y-41257200D01*
X168243333Y-41257200D02*
X168338571Y-41304819D01*
X168338571Y-41304819D02*
X168529047Y-41304819D01*
X168529047Y-41304819D02*
X168624285Y-41257200D01*
X168624285Y-41257200D02*
X168671904Y-41209580D01*
X168671904Y-41209580D02*
X168719523Y-41114342D01*
X168719523Y-41114342D02*
X168719523Y-40304819D01*
X169624285Y-40638152D02*
X169624285Y-41304819D01*
X169386190Y-40257200D02*
X169148095Y-40971485D01*
X169148095Y-40971485D02*
X169767142Y-40971485D01*
X167473333Y-58874819D02*
X167140000Y-58398628D01*
X166901905Y-58874819D02*
X166901905Y-57874819D01*
X166901905Y-57874819D02*
X167282857Y-57874819D01*
X167282857Y-57874819D02*
X167378095Y-57922438D01*
X167378095Y-57922438D02*
X167425714Y-57970057D01*
X167425714Y-57970057D02*
X167473333Y-58065295D01*
X167473333Y-58065295D02*
X167473333Y-58208152D01*
X167473333Y-58208152D02*
X167425714Y-58303390D01*
X167425714Y-58303390D02*
X167378095Y-58351009D01*
X167378095Y-58351009D02*
X167282857Y-58398628D01*
X167282857Y-58398628D02*
X166901905Y-58398628D01*
X167949524Y-58874819D02*
X168140000Y-58874819D01*
X168140000Y-58874819D02*
X168235238Y-58827200D01*
X168235238Y-58827200D02*
X168282857Y-58779580D01*
X168282857Y-58779580D02*
X168378095Y-58636723D01*
X168378095Y-58636723D02*
X168425714Y-58446247D01*
X168425714Y-58446247D02*
X168425714Y-58065295D01*
X168425714Y-58065295D02*
X168378095Y-57970057D01*
X168378095Y-57970057D02*
X168330476Y-57922438D01*
X168330476Y-57922438D02*
X168235238Y-57874819D01*
X168235238Y-57874819D02*
X168044762Y-57874819D01*
X168044762Y-57874819D02*
X167949524Y-57922438D01*
X167949524Y-57922438D02*
X167901905Y-57970057D01*
X167901905Y-57970057D02*
X167854286Y-58065295D01*
X167854286Y-58065295D02*
X167854286Y-58303390D01*
X167854286Y-58303390D02*
X167901905Y-58398628D01*
X167901905Y-58398628D02*
X167949524Y-58446247D01*
X167949524Y-58446247D02*
X168044762Y-58493866D01*
X168044762Y-58493866D02*
X168235238Y-58493866D01*
X168235238Y-58493866D02*
X168330476Y-58446247D01*
X168330476Y-58446247D02*
X168378095Y-58398628D01*
X168378095Y-58398628D02*
X168425714Y-58303390D01*
X157934819Y-73826666D02*
X157458628Y-74159999D01*
X157934819Y-74398094D02*
X156934819Y-74398094D01*
X156934819Y-74398094D02*
X156934819Y-74017142D01*
X156934819Y-74017142D02*
X156982438Y-73921904D01*
X156982438Y-73921904D02*
X157030057Y-73874285D01*
X157030057Y-73874285D02*
X157125295Y-73826666D01*
X157125295Y-73826666D02*
X157268152Y-73826666D01*
X157268152Y-73826666D02*
X157363390Y-73874285D01*
X157363390Y-73874285D02*
X157411009Y-73921904D01*
X157411009Y-73921904D02*
X157458628Y-74017142D01*
X157458628Y-74017142D02*
X157458628Y-74398094D01*
X157268152Y-72969523D02*
X157934819Y-72969523D01*
X156887200Y-73207618D02*
X157601485Y-73445713D01*
X157601485Y-73445713D02*
X157601485Y-72826666D01*
X163014819Y-48902857D02*
X162538628Y-49236190D01*
X163014819Y-49474285D02*
X162014819Y-49474285D01*
X162014819Y-49474285D02*
X162014819Y-49093333D01*
X162014819Y-49093333D02*
X162062438Y-48998095D01*
X162062438Y-48998095D02*
X162110057Y-48950476D01*
X162110057Y-48950476D02*
X162205295Y-48902857D01*
X162205295Y-48902857D02*
X162348152Y-48902857D01*
X162348152Y-48902857D02*
X162443390Y-48950476D01*
X162443390Y-48950476D02*
X162491009Y-48998095D01*
X162491009Y-48998095D02*
X162538628Y-49093333D01*
X162538628Y-49093333D02*
X162538628Y-49474285D01*
X163014819Y-47950476D02*
X163014819Y-48521904D01*
X163014819Y-48236190D02*
X162014819Y-48236190D01*
X162014819Y-48236190D02*
X162157676Y-48331428D01*
X162157676Y-48331428D02*
X162252914Y-48426666D01*
X162252914Y-48426666D02*
X162300533Y-48521904D01*
X162110057Y-47569523D02*
X162062438Y-47521904D01*
X162062438Y-47521904D02*
X162014819Y-47426666D01*
X162014819Y-47426666D02*
X162014819Y-47188571D01*
X162014819Y-47188571D02*
X162062438Y-47093333D01*
X162062438Y-47093333D02*
X162110057Y-47045714D01*
X162110057Y-47045714D02*
X162205295Y-46998095D01*
X162205295Y-46998095D02*
X162300533Y-46998095D01*
X162300533Y-46998095D02*
X162443390Y-47045714D01*
X162443390Y-47045714D02*
X163014819Y-47617142D01*
X163014819Y-47617142D02*
X163014819Y-46998095D01*
X152233333Y-53794819D02*
X151900000Y-53318628D01*
X151661905Y-53794819D02*
X151661905Y-52794819D01*
X151661905Y-52794819D02*
X152042857Y-52794819D01*
X152042857Y-52794819D02*
X152138095Y-52842438D01*
X152138095Y-52842438D02*
X152185714Y-52890057D01*
X152185714Y-52890057D02*
X152233333Y-52985295D01*
X152233333Y-52985295D02*
X152233333Y-53128152D01*
X152233333Y-53128152D02*
X152185714Y-53223390D01*
X152185714Y-53223390D02*
X152138095Y-53271009D01*
X152138095Y-53271009D02*
X152042857Y-53318628D01*
X152042857Y-53318628D02*
X151661905Y-53318628D01*
X153138095Y-52794819D02*
X152661905Y-52794819D01*
X152661905Y-52794819D02*
X152614286Y-53271009D01*
X152614286Y-53271009D02*
X152661905Y-53223390D01*
X152661905Y-53223390D02*
X152757143Y-53175771D01*
X152757143Y-53175771D02*
X152995238Y-53175771D01*
X152995238Y-53175771D02*
X153090476Y-53223390D01*
X153090476Y-53223390D02*
X153138095Y-53271009D01*
X153138095Y-53271009D02*
X153185714Y-53366247D01*
X153185714Y-53366247D02*
X153185714Y-53604342D01*
X153185714Y-53604342D02*
X153138095Y-53699580D01*
X153138095Y-53699580D02*
X153090476Y-53747200D01*
X153090476Y-53747200D02*
X152995238Y-53794819D01*
X152995238Y-53794819D02*
X152757143Y-53794819D01*
X152757143Y-53794819D02*
X152661905Y-53747200D01*
X152661905Y-53747200D02*
X152614286Y-53699580D01*
X170634819Y-73826666D02*
X170158628Y-74159999D01*
X170634819Y-74398094D02*
X169634819Y-74398094D01*
X169634819Y-74398094D02*
X169634819Y-74017142D01*
X169634819Y-74017142D02*
X169682438Y-73921904D01*
X169682438Y-73921904D02*
X169730057Y-73874285D01*
X169730057Y-73874285D02*
X169825295Y-73826666D01*
X169825295Y-73826666D02*
X169968152Y-73826666D01*
X169968152Y-73826666D02*
X170063390Y-73874285D01*
X170063390Y-73874285D02*
X170111009Y-73921904D01*
X170111009Y-73921904D02*
X170158628Y-74017142D01*
X170158628Y-74017142D02*
X170158628Y-74398094D01*
X170634819Y-72874285D02*
X170634819Y-73445713D01*
X170634819Y-73159999D02*
X169634819Y-73159999D01*
X169634819Y-73159999D02*
X169777676Y-73255237D01*
X169777676Y-73255237D02*
X169872914Y-73350475D01*
X169872914Y-73350475D02*
X169920533Y-73445713D01*
X177633333Y-108249580D02*
X177585714Y-108297200D01*
X177585714Y-108297200D02*
X177442857Y-108344819D01*
X177442857Y-108344819D02*
X177347619Y-108344819D01*
X177347619Y-108344819D02*
X177204762Y-108297200D01*
X177204762Y-108297200D02*
X177109524Y-108201961D01*
X177109524Y-108201961D02*
X177061905Y-108106723D01*
X177061905Y-108106723D02*
X177014286Y-107916247D01*
X177014286Y-107916247D02*
X177014286Y-107773390D01*
X177014286Y-107773390D02*
X177061905Y-107582914D01*
X177061905Y-107582914D02*
X177109524Y-107487676D01*
X177109524Y-107487676D02*
X177204762Y-107392438D01*
X177204762Y-107392438D02*
X177347619Y-107344819D01*
X177347619Y-107344819D02*
X177442857Y-107344819D01*
X177442857Y-107344819D02*
X177585714Y-107392438D01*
X177585714Y-107392438D02*
X177633333Y-107440057D01*
X177966667Y-107344819D02*
X178585714Y-107344819D01*
X178585714Y-107344819D02*
X178252381Y-107725771D01*
X178252381Y-107725771D02*
X178395238Y-107725771D01*
X178395238Y-107725771D02*
X178490476Y-107773390D01*
X178490476Y-107773390D02*
X178538095Y-107821009D01*
X178538095Y-107821009D02*
X178585714Y-107916247D01*
X178585714Y-107916247D02*
X178585714Y-108154342D01*
X178585714Y-108154342D02*
X178538095Y-108249580D01*
X178538095Y-108249580D02*
X178490476Y-108297200D01*
X178490476Y-108297200D02*
X178395238Y-108344819D01*
X178395238Y-108344819D02*
X178109524Y-108344819D01*
X178109524Y-108344819D02*
X178014286Y-108297200D01*
X178014286Y-108297200D02*
X177966667Y-108249580D01*
X159684819Y-106171904D02*
X160494342Y-106171904D01*
X160494342Y-106171904D02*
X160589580Y-106124285D01*
X160589580Y-106124285D02*
X160637200Y-106076666D01*
X160637200Y-106076666D02*
X160684819Y-105981428D01*
X160684819Y-105981428D02*
X160684819Y-105790952D01*
X160684819Y-105790952D02*
X160637200Y-105695714D01*
X160637200Y-105695714D02*
X160589580Y-105648095D01*
X160589580Y-105648095D02*
X160494342Y-105600476D01*
X160494342Y-105600476D02*
X159684819Y-105600476D01*
X159684819Y-104648095D02*
X159684819Y-105124285D01*
X159684819Y-105124285D02*
X160161009Y-105171904D01*
X160161009Y-105171904D02*
X160113390Y-105124285D01*
X160113390Y-105124285D02*
X160065771Y-105029047D01*
X160065771Y-105029047D02*
X160065771Y-104790952D01*
X160065771Y-104790952D02*
X160113390Y-104695714D01*
X160113390Y-104695714D02*
X160161009Y-104648095D01*
X160161009Y-104648095D02*
X160256247Y-104600476D01*
X160256247Y-104600476D02*
X160494342Y-104600476D01*
X160494342Y-104600476D02*
X160589580Y-104648095D01*
X160589580Y-104648095D02*
X160637200Y-104695714D01*
X160637200Y-104695714D02*
X160684819Y-104790952D01*
X160684819Y-104790952D02*
X160684819Y-105029047D01*
X160684819Y-105029047D02*
X160637200Y-105124285D01*
X160637200Y-105124285D02*
X160589580Y-105171904D01*
X149693333Y-66494819D02*
X149360000Y-66018628D01*
X149121905Y-66494819D02*
X149121905Y-65494819D01*
X149121905Y-65494819D02*
X149502857Y-65494819D01*
X149502857Y-65494819D02*
X149598095Y-65542438D01*
X149598095Y-65542438D02*
X149645714Y-65590057D01*
X149645714Y-65590057D02*
X149693333Y-65685295D01*
X149693333Y-65685295D02*
X149693333Y-65828152D01*
X149693333Y-65828152D02*
X149645714Y-65923390D01*
X149645714Y-65923390D02*
X149598095Y-65971009D01*
X149598095Y-65971009D02*
X149502857Y-66018628D01*
X149502857Y-66018628D02*
X149121905Y-66018628D01*
X150264762Y-65923390D02*
X150169524Y-65875771D01*
X150169524Y-65875771D02*
X150121905Y-65828152D01*
X150121905Y-65828152D02*
X150074286Y-65732914D01*
X150074286Y-65732914D02*
X150074286Y-65685295D01*
X150074286Y-65685295D02*
X150121905Y-65590057D01*
X150121905Y-65590057D02*
X150169524Y-65542438D01*
X150169524Y-65542438D02*
X150264762Y-65494819D01*
X150264762Y-65494819D02*
X150455238Y-65494819D01*
X150455238Y-65494819D02*
X150550476Y-65542438D01*
X150550476Y-65542438D02*
X150598095Y-65590057D01*
X150598095Y-65590057D02*
X150645714Y-65685295D01*
X150645714Y-65685295D02*
X150645714Y-65732914D01*
X150645714Y-65732914D02*
X150598095Y-65828152D01*
X150598095Y-65828152D02*
X150550476Y-65875771D01*
X150550476Y-65875771D02*
X150455238Y-65923390D01*
X150455238Y-65923390D02*
X150264762Y-65923390D01*
X150264762Y-65923390D02*
X150169524Y-65971009D01*
X150169524Y-65971009D02*
X150121905Y-66018628D01*
X150121905Y-66018628D02*
X150074286Y-66113866D01*
X150074286Y-66113866D02*
X150074286Y-66304342D01*
X150074286Y-66304342D02*
X150121905Y-66399580D01*
X150121905Y-66399580D02*
X150169524Y-66447200D01*
X150169524Y-66447200D02*
X150264762Y-66494819D01*
X150264762Y-66494819D02*
X150455238Y-66494819D01*
X150455238Y-66494819D02*
X150550476Y-66447200D01*
X150550476Y-66447200D02*
X150598095Y-66399580D01*
X150598095Y-66399580D02*
X150645714Y-66304342D01*
X150645714Y-66304342D02*
X150645714Y-66113866D01*
X150645714Y-66113866D02*
X150598095Y-66018628D01*
X150598095Y-66018628D02*
X150550476Y-65971009D01*
X150550476Y-65971009D02*
X150455238Y-65923390D01*
X151757142Y-41094819D02*
X151423809Y-40618628D01*
X151185714Y-41094819D02*
X151185714Y-40094819D01*
X151185714Y-40094819D02*
X151566666Y-40094819D01*
X151566666Y-40094819D02*
X151661904Y-40142438D01*
X151661904Y-40142438D02*
X151709523Y-40190057D01*
X151709523Y-40190057D02*
X151757142Y-40285295D01*
X151757142Y-40285295D02*
X151757142Y-40428152D01*
X151757142Y-40428152D02*
X151709523Y-40523390D01*
X151709523Y-40523390D02*
X151661904Y-40571009D01*
X151661904Y-40571009D02*
X151566666Y-40618628D01*
X151566666Y-40618628D02*
X151185714Y-40618628D01*
X152709523Y-41094819D02*
X152138095Y-41094819D01*
X152423809Y-41094819D02*
X152423809Y-40094819D01*
X152423809Y-40094819D02*
X152328571Y-40237676D01*
X152328571Y-40237676D02*
X152233333Y-40332914D01*
X152233333Y-40332914D02*
X152138095Y-40380533D01*
X153661904Y-41094819D02*
X153090476Y-41094819D01*
X153376190Y-41094819D02*
X153376190Y-40094819D01*
X153376190Y-40094819D02*
X153280952Y-40237676D01*
X153280952Y-40237676D02*
X153185714Y-40332914D01*
X153185714Y-40332914D02*
X153090476Y-40380533D01*
X152233333Y-58874819D02*
X151900000Y-58398628D01*
X151661905Y-58874819D02*
X151661905Y-57874819D01*
X151661905Y-57874819D02*
X152042857Y-57874819D01*
X152042857Y-57874819D02*
X152138095Y-57922438D01*
X152138095Y-57922438D02*
X152185714Y-57970057D01*
X152185714Y-57970057D02*
X152233333Y-58065295D01*
X152233333Y-58065295D02*
X152233333Y-58208152D01*
X152233333Y-58208152D02*
X152185714Y-58303390D01*
X152185714Y-58303390D02*
X152138095Y-58351009D01*
X152138095Y-58351009D02*
X152042857Y-58398628D01*
X152042857Y-58398628D02*
X151661905Y-58398628D01*
X152566667Y-57874819D02*
X153233333Y-57874819D01*
X153233333Y-57874819D02*
X152804762Y-58874819D01*
X157146666Y-108884819D02*
X157146666Y-109599104D01*
X157146666Y-109599104D02*
X157099047Y-109741961D01*
X157099047Y-109741961D02*
X157003809Y-109837200D01*
X157003809Y-109837200D02*
X156860952Y-109884819D01*
X156860952Y-109884819D02*
X156765714Y-109884819D01*
X158146666Y-109884819D02*
X157575238Y-109884819D01*
X157860952Y-109884819D02*
X157860952Y-108884819D01*
X157860952Y-108884819D02*
X157765714Y-109027676D01*
X157765714Y-109027676D02*
X157670476Y-109122914D01*
X157670476Y-109122914D02*
X157575238Y-109170533D01*
X145288095Y-90684819D02*
X145288095Y-91494342D01*
X145288095Y-91494342D02*
X145335714Y-91589580D01*
X145335714Y-91589580D02*
X145383333Y-91637200D01*
X145383333Y-91637200D02*
X145478571Y-91684819D01*
X145478571Y-91684819D02*
X145669047Y-91684819D01*
X145669047Y-91684819D02*
X145764285Y-91637200D01*
X145764285Y-91637200D02*
X145811904Y-91589580D01*
X145811904Y-91589580D02*
X145859523Y-91494342D01*
X145859523Y-91494342D02*
X145859523Y-90684819D01*
X146288095Y-90780057D02*
X146335714Y-90732438D01*
X146335714Y-90732438D02*
X146430952Y-90684819D01*
X146430952Y-90684819D02*
X146669047Y-90684819D01*
X146669047Y-90684819D02*
X146764285Y-90732438D01*
X146764285Y-90732438D02*
X146811904Y-90780057D01*
X146811904Y-90780057D02*
X146859523Y-90875295D01*
X146859523Y-90875295D02*
X146859523Y-90970533D01*
X146859523Y-90970533D02*
X146811904Y-91113390D01*
X146811904Y-91113390D02*
X146240476Y-91684819D01*
X146240476Y-91684819D02*
X146859523Y-91684819D01*
X185874819Y-92035238D02*
X185398628Y-92368571D01*
X185874819Y-92606666D02*
X184874819Y-92606666D01*
X184874819Y-92606666D02*
X184874819Y-92225714D01*
X184874819Y-92225714D02*
X184922438Y-92130476D01*
X184922438Y-92130476D02*
X184970057Y-92082857D01*
X184970057Y-92082857D02*
X185065295Y-92035238D01*
X185065295Y-92035238D02*
X185208152Y-92035238D01*
X185208152Y-92035238D02*
X185303390Y-92082857D01*
X185303390Y-92082857D02*
X185351009Y-92130476D01*
X185351009Y-92130476D02*
X185398628Y-92225714D01*
X185398628Y-92225714D02*
X185398628Y-92606666D01*
X184874819Y-91749523D02*
X185874819Y-91416190D01*
X185874819Y-91416190D02*
X184874819Y-91082857D01*
X184970057Y-90797142D02*
X184922438Y-90749523D01*
X184922438Y-90749523D02*
X184874819Y-90654285D01*
X184874819Y-90654285D02*
X184874819Y-90416190D01*
X184874819Y-90416190D02*
X184922438Y-90320952D01*
X184922438Y-90320952D02*
X184970057Y-90273333D01*
X184970057Y-90273333D02*
X185065295Y-90225714D01*
X185065295Y-90225714D02*
X185160533Y-90225714D01*
X185160533Y-90225714D02*
X185303390Y-90273333D01*
X185303390Y-90273333D02*
X185874819Y-90844761D01*
X185874819Y-90844761D02*
X185874819Y-90225714D01*
X142748095Y-45379819D02*
X142748095Y-46189342D01*
X142748095Y-46189342D02*
X142795714Y-46284580D01*
X142795714Y-46284580D02*
X142843333Y-46332200D01*
X142843333Y-46332200D02*
X142938571Y-46379819D01*
X142938571Y-46379819D02*
X143129047Y-46379819D01*
X143129047Y-46379819D02*
X143224285Y-46332200D01*
X143224285Y-46332200D02*
X143271904Y-46284580D01*
X143271904Y-46284580D02*
X143319523Y-46189342D01*
X143319523Y-46189342D02*
X143319523Y-45379819D01*
X143700476Y-45379819D02*
X144319523Y-45379819D01*
X144319523Y-45379819D02*
X143986190Y-45760771D01*
X143986190Y-45760771D02*
X144129047Y-45760771D01*
X144129047Y-45760771D02*
X144224285Y-45808390D01*
X144224285Y-45808390D02*
X144271904Y-45856009D01*
X144271904Y-45856009D02*
X144319523Y-45951247D01*
X144319523Y-45951247D02*
X144319523Y-46189342D01*
X144319523Y-46189342D02*
X144271904Y-46284580D01*
X144271904Y-46284580D02*
X144224285Y-46332200D01*
X144224285Y-46332200D02*
X144129047Y-46379819D01*
X144129047Y-46379819D02*
X143843333Y-46379819D01*
X143843333Y-46379819D02*
X143748095Y-46332200D01*
X143748095Y-46332200D02*
X143700476Y-46284580D01*
X157144819Y-83311904D02*
X157954342Y-83311904D01*
X157954342Y-83311904D02*
X158049580Y-83264285D01*
X158049580Y-83264285D02*
X158097200Y-83216666D01*
X158097200Y-83216666D02*
X158144819Y-83121428D01*
X158144819Y-83121428D02*
X158144819Y-82930952D01*
X158144819Y-82930952D02*
X158097200Y-82835714D01*
X158097200Y-82835714D02*
X158049580Y-82788095D01*
X158049580Y-82788095D02*
X157954342Y-82740476D01*
X157954342Y-82740476D02*
X157144819Y-82740476D01*
X158144819Y-81740476D02*
X158144819Y-82311904D01*
X158144819Y-82026190D02*
X157144819Y-82026190D01*
X157144819Y-82026190D02*
X157287676Y-82121428D01*
X157287676Y-82121428D02*
X157382914Y-82216666D01*
X157382914Y-82216666D02*
X157430533Y-82311904D01*
X136674761Y-66824819D02*
X136341428Y-66348628D01*
X136103333Y-66824819D02*
X136103333Y-65824819D01*
X136103333Y-65824819D02*
X136484285Y-65824819D01*
X136484285Y-65824819D02*
X136579523Y-65872438D01*
X136579523Y-65872438D02*
X136627142Y-65920057D01*
X136627142Y-65920057D02*
X136674761Y-66015295D01*
X136674761Y-66015295D02*
X136674761Y-66158152D01*
X136674761Y-66158152D02*
X136627142Y-66253390D01*
X136627142Y-66253390D02*
X136579523Y-66301009D01*
X136579523Y-66301009D02*
X136484285Y-66348628D01*
X136484285Y-66348628D02*
X136103333Y-66348628D01*
X136960476Y-65824819D02*
X137293809Y-66824819D01*
X137293809Y-66824819D02*
X137627142Y-65824819D01*
X138389047Y-66158152D02*
X138389047Y-66824819D01*
X138150952Y-65777200D02*
X137912857Y-66491485D01*
X137912857Y-66491485D02*
X138531904Y-66491485D01*
X165554819Y-73826666D02*
X165078628Y-74159999D01*
X165554819Y-74398094D02*
X164554819Y-74398094D01*
X164554819Y-74398094D02*
X164554819Y-74017142D01*
X164554819Y-74017142D02*
X164602438Y-73921904D01*
X164602438Y-73921904D02*
X164650057Y-73874285D01*
X164650057Y-73874285D02*
X164745295Y-73826666D01*
X164745295Y-73826666D02*
X164888152Y-73826666D01*
X164888152Y-73826666D02*
X164983390Y-73874285D01*
X164983390Y-73874285D02*
X165031009Y-73921904D01*
X165031009Y-73921904D02*
X165078628Y-74017142D01*
X165078628Y-74017142D02*
X165078628Y-74398094D01*
X164554819Y-73493332D02*
X164554819Y-72874285D01*
X164554819Y-72874285D02*
X164935771Y-73207618D01*
X164935771Y-73207618D02*
X164935771Y-73064761D01*
X164935771Y-73064761D02*
X164983390Y-72969523D01*
X164983390Y-72969523D02*
X165031009Y-72921904D01*
X165031009Y-72921904D02*
X165126247Y-72874285D01*
X165126247Y-72874285D02*
X165364342Y-72874285D01*
X165364342Y-72874285D02*
X165459580Y-72921904D01*
X165459580Y-72921904D02*
X165507200Y-72969523D01*
X165507200Y-72969523D02*
X165554819Y-73064761D01*
X165554819Y-73064761D02*
X165554819Y-73350475D01*
X165554819Y-73350475D02*
X165507200Y-73445713D01*
X165507200Y-73445713D02*
X165459580Y-73493332D01*
X171869580Y-110636666D02*
X171917200Y-110684285D01*
X171917200Y-110684285D02*
X171964819Y-110827142D01*
X171964819Y-110827142D02*
X171964819Y-110922380D01*
X171964819Y-110922380D02*
X171917200Y-111065237D01*
X171917200Y-111065237D02*
X171821961Y-111160475D01*
X171821961Y-111160475D02*
X171726723Y-111208094D01*
X171726723Y-111208094D02*
X171536247Y-111255713D01*
X171536247Y-111255713D02*
X171393390Y-111255713D01*
X171393390Y-111255713D02*
X171202914Y-111208094D01*
X171202914Y-111208094D02*
X171107676Y-111160475D01*
X171107676Y-111160475D02*
X171012438Y-111065237D01*
X171012438Y-111065237D02*
X170964819Y-110922380D01*
X170964819Y-110922380D02*
X170964819Y-110827142D01*
X170964819Y-110827142D02*
X171012438Y-110684285D01*
X171012438Y-110684285D02*
X171060057Y-110636666D01*
X171964819Y-109684285D02*
X171964819Y-110255713D01*
X171964819Y-109969999D02*
X170964819Y-109969999D01*
X170964819Y-109969999D02*
X171107676Y-110065237D01*
X171107676Y-110065237D02*
X171202914Y-110160475D01*
X171202914Y-110160475D02*
X171250533Y-110255713D01*
X156063333Y-105709580D02*
X156015714Y-105757200D01*
X156015714Y-105757200D02*
X155872857Y-105804819D01*
X155872857Y-105804819D02*
X155777619Y-105804819D01*
X155777619Y-105804819D02*
X155634762Y-105757200D01*
X155634762Y-105757200D02*
X155539524Y-105661961D01*
X155539524Y-105661961D02*
X155491905Y-105566723D01*
X155491905Y-105566723D02*
X155444286Y-105376247D01*
X155444286Y-105376247D02*
X155444286Y-105233390D01*
X155444286Y-105233390D02*
X155491905Y-105042914D01*
X155491905Y-105042914D02*
X155539524Y-104947676D01*
X155539524Y-104947676D02*
X155634762Y-104852438D01*
X155634762Y-104852438D02*
X155777619Y-104804819D01*
X155777619Y-104804819D02*
X155872857Y-104804819D01*
X155872857Y-104804819D02*
X156015714Y-104852438D01*
X156015714Y-104852438D02*
X156063333Y-104900057D01*
X156444286Y-104900057D02*
X156491905Y-104852438D01*
X156491905Y-104852438D02*
X156587143Y-104804819D01*
X156587143Y-104804819D02*
X156825238Y-104804819D01*
X156825238Y-104804819D02*
X156920476Y-104852438D01*
X156920476Y-104852438D02*
X156968095Y-104900057D01*
X156968095Y-104900057D02*
X157015714Y-104995295D01*
X157015714Y-104995295D02*
X157015714Y-105090533D01*
X157015714Y-105090533D02*
X156968095Y-105233390D01*
X156968095Y-105233390D02*
X156396667Y-105804819D01*
X156396667Y-105804819D02*
X157015714Y-105804819D01*
X183334819Y-71715238D02*
X182858628Y-72048571D01*
X183334819Y-72286666D02*
X182334819Y-72286666D01*
X182334819Y-72286666D02*
X182334819Y-71905714D01*
X182334819Y-71905714D02*
X182382438Y-71810476D01*
X182382438Y-71810476D02*
X182430057Y-71762857D01*
X182430057Y-71762857D02*
X182525295Y-71715238D01*
X182525295Y-71715238D02*
X182668152Y-71715238D01*
X182668152Y-71715238D02*
X182763390Y-71762857D01*
X182763390Y-71762857D02*
X182811009Y-71810476D01*
X182811009Y-71810476D02*
X182858628Y-71905714D01*
X182858628Y-71905714D02*
X182858628Y-72286666D01*
X182334819Y-71429523D02*
X183334819Y-71096190D01*
X183334819Y-71096190D02*
X182334819Y-70762857D01*
X183334819Y-69905714D02*
X183334819Y-70477142D01*
X183334819Y-70191428D02*
X182334819Y-70191428D01*
X182334819Y-70191428D02*
X182477676Y-70286666D01*
X182477676Y-70286666D02*
X182572914Y-70381904D01*
X182572914Y-70381904D02*
X182620533Y-70477142D01*
X172077142Y-66494819D02*
X171743809Y-66018628D01*
X171505714Y-66494819D02*
X171505714Y-65494819D01*
X171505714Y-65494819D02*
X171886666Y-65494819D01*
X171886666Y-65494819D02*
X171981904Y-65542438D01*
X171981904Y-65542438D02*
X172029523Y-65590057D01*
X172029523Y-65590057D02*
X172077142Y-65685295D01*
X172077142Y-65685295D02*
X172077142Y-65828152D01*
X172077142Y-65828152D02*
X172029523Y-65923390D01*
X172029523Y-65923390D02*
X171981904Y-65971009D01*
X171981904Y-65971009D02*
X171886666Y-66018628D01*
X171886666Y-66018628D02*
X171505714Y-66018628D01*
X173029523Y-66494819D02*
X172458095Y-66494819D01*
X172743809Y-66494819D02*
X172743809Y-65494819D01*
X172743809Y-65494819D02*
X172648571Y-65637676D01*
X172648571Y-65637676D02*
X172553333Y-65732914D01*
X172553333Y-65732914D02*
X172458095Y-65780533D01*
X173648571Y-65494819D02*
X173743809Y-65494819D01*
X173743809Y-65494819D02*
X173839047Y-65542438D01*
X173839047Y-65542438D02*
X173886666Y-65590057D01*
X173886666Y-65590057D02*
X173934285Y-65685295D01*
X173934285Y-65685295D02*
X173981904Y-65875771D01*
X173981904Y-65875771D02*
X173981904Y-66113866D01*
X173981904Y-66113866D02*
X173934285Y-66304342D01*
X173934285Y-66304342D02*
X173886666Y-66399580D01*
X173886666Y-66399580D02*
X173839047Y-66447200D01*
X173839047Y-66447200D02*
X173743809Y-66494819D01*
X173743809Y-66494819D02*
X173648571Y-66494819D01*
X173648571Y-66494819D02*
X173553333Y-66447200D01*
X173553333Y-66447200D02*
X173505714Y-66399580D01*
X173505714Y-66399580D02*
X173458095Y-66304342D01*
X173458095Y-66304342D02*
X173410476Y-66113866D01*
X173410476Y-66113866D02*
X173410476Y-65875771D01*
X173410476Y-65875771D02*
X173458095Y-65685295D01*
X173458095Y-65685295D02*
X173505714Y-65590057D01*
X173505714Y-65590057D02*
X173553333Y-65542438D01*
X173553333Y-65542438D02*
X173648571Y-65494819D01*
X144904819Y-41345238D02*
X144428628Y-41678571D01*
X144904819Y-41916666D02*
X143904819Y-41916666D01*
X143904819Y-41916666D02*
X143904819Y-41535714D01*
X143904819Y-41535714D02*
X143952438Y-41440476D01*
X143952438Y-41440476D02*
X144000057Y-41392857D01*
X144000057Y-41392857D02*
X144095295Y-41345238D01*
X144095295Y-41345238D02*
X144238152Y-41345238D01*
X144238152Y-41345238D02*
X144333390Y-41392857D01*
X144333390Y-41392857D02*
X144381009Y-41440476D01*
X144381009Y-41440476D02*
X144428628Y-41535714D01*
X144428628Y-41535714D02*
X144428628Y-41916666D01*
X143904819Y-41059523D02*
X144904819Y-40726190D01*
X144904819Y-40726190D02*
X143904819Y-40392857D01*
X143904819Y-40154761D02*
X143904819Y-39535714D01*
X143904819Y-39535714D02*
X144285771Y-39869047D01*
X144285771Y-39869047D02*
X144285771Y-39726190D01*
X144285771Y-39726190D02*
X144333390Y-39630952D01*
X144333390Y-39630952D02*
X144381009Y-39583333D01*
X144381009Y-39583333D02*
X144476247Y-39535714D01*
X144476247Y-39535714D02*
X144714342Y-39535714D01*
X144714342Y-39535714D02*
X144809580Y-39583333D01*
X144809580Y-39583333D02*
X144857200Y-39630952D01*
X144857200Y-39630952D02*
X144904819Y-39726190D01*
X144904819Y-39726190D02*
X144904819Y-40011904D01*
X144904819Y-40011904D02*
X144857200Y-40107142D01*
X144857200Y-40107142D02*
X144809580Y-40154761D01*
X178254819Y-73826666D02*
X177778628Y-74159999D01*
X178254819Y-74398094D02*
X177254819Y-74398094D01*
X177254819Y-74398094D02*
X177254819Y-74017142D01*
X177254819Y-74017142D02*
X177302438Y-73921904D01*
X177302438Y-73921904D02*
X177350057Y-73874285D01*
X177350057Y-73874285D02*
X177445295Y-73826666D01*
X177445295Y-73826666D02*
X177588152Y-73826666D01*
X177588152Y-73826666D02*
X177683390Y-73874285D01*
X177683390Y-73874285D02*
X177731009Y-73921904D01*
X177731009Y-73921904D02*
X177778628Y-74017142D01*
X177778628Y-74017142D02*
X177778628Y-74398094D01*
X177350057Y-73445713D02*
X177302438Y-73398094D01*
X177302438Y-73398094D02*
X177254819Y-73302856D01*
X177254819Y-73302856D02*
X177254819Y-73064761D01*
X177254819Y-73064761D02*
X177302438Y-72969523D01*
X177302438Y-72969523D02*
X177350057Y-72921904D01*
X177350057Y-72921904D02*
X177445295Y-72874285D01*
X177445295Y-72874285D02*
X177540533Y-72874285D01*
X177540533Y-72874285D02*
X177683390Y-72921904D01*
X177683390Y-72921904D02*
X178254819Y-73493332D01*
X178254819Y-73493332D02*
X178254819Y-72874285D01*
X152233333Y-46174819D02*
X151900000Y-45698628D01*
X151661905Y-46174819D02*
X151661905Y-45174819D01*
X151661905Y-45174819D02*
X152042857Y-45174819D01*
X152042857Y-45174819D02*
X152138095Y-45222438D01*
X152138095Y-45222438D02*
X152185714Y-45270057D01*
X152185714Y-45270057D02*
X152233333Y-45365295D01*
X152233333Y-45365295D02*
X152233333Y-45508152D01*
X152233333Y-45508152D02*
X152185714Y-45603390D01*
X152185714Y-45603390D02*
X152138095Y-45651009D01*
X152138095Y-45651009D02*
X152042857Y-45698628D01*
X152042857Y-45698628D02*
X151661905Y-45698628D01*
X153090476Y-45174819D02*
X152900000Y-45174819D01*
X152900000Y-45174819D02*
X152804762Y-45222438D01*
X152804762Y-45222438D02*
X152757143Y-45270057D01*
X152757143Y-45270057D02*
X152661905Y-45412914D01*
X152661905Y-45412914D02*
X152614286Y-45603390D01*
X152614286Y-45603390D02*
X152614286Y-45984342D01*
X152614286Y-45984342D02*
X152661905Y-46079580D01*
X152661905Y-46079580D02*
X152709524Y-46127200D01*
X152709524Y-46127200D02*
X152804762Y-46174819D01*
X152804762Y-46174819D02*
X152995238Y-46174819D01*
X152995238Y-46174819D02*
X153090476Y-46127200D01*
X153090476Y-46127200D02*
X153138095Y-46079580D01*
X153138095Y-46079580D02*
X153185714Y-45984342D01*
X153185714Y-45984342D02*
X153185714Y-45746247D01*
X153185714Y-45746247D02*
X153138095Y-45651009D01*
X153138095Y-45651009D02*
X153090476Y-45603390D01*
X153090476Y-45603390D02*
X152995238Y-45555771D01*
X152995238Y-45555771D02*
X152804762Y-45555771D01*
X152804762Y-45555771D02*
X152709524Y-45603390D01*
X152709524Y-45603390D02*
X152661905Y-45651009D01*
X152661905Y-45651009D02*
X152614286Y-45746247D01*
D11*
%TO.C,U4*%
X166260000Y-41850000D02*
X166260000Y-52130000D01*
X166260000Y-52130000D02*
X171560000Y-52130000D01*
X167910000Y-41850000D02*
X166260000Y-41850000D01*
X171560000Y-41850000D02*
X169910000Y-41850000D01*
X171560000Y-52130000D02*
X171560000Y-41850000D01*
X169910000Y-41850000D02*
G75*
G02*
X167910000Y-41850000I-1000000J0D01*
G01*
%TO.C,R9*%
X163500000Y-60960000D02*
X164450000Y-60960000D01*
X164450000Y-60040000D02*
X164450000Y-61880000D01*
X164450000Y-61880000D02*
X168290000Y-61880000D01*
X168290000Y-60040000D02*
X164450000Y-60040000D01*
X168290000Y-61880000D02*
X168290000Y-60040000D01*
X169240000Y-60960000D02*
X168290000Y-60960000D01*
%TO.C,R4*%
X159100000Y-70470000D02*
X159100000Y-74310000D01*
X159100000Y-74310000D02*
X160940000Y-74310000D01*
X160020000Y-69520000D02*
X160020000Y-70470000D01*
X160020000Y-75260000D02*
X160020000Y-74310000D01*
X160940000Y-70470000D02*
X159100000Y-70470000D01*
X160940000Y-74310000D02*
X160940000Y-70470000D01*
%TO.C,R12*%
X159100000Y-45070000D02*
X159100000Y-48910000D01*
X159100000Y-48910000D02*
X160940000Y-48910000D01*
X160020000Y-44120000D02*
X160020000Y-45070000D01*
X160020000Y-49860000D02*
X160020000Y-48910000D01*
X160940000Y-45070000D02*
X159100000Y-45070000D01*
X160940000Y-48910000D02*
X160940000Y-45070000D01*
%TO.C,R5*%
X150800000Y-50800000D02*
X151750000Y-50800000D01*
X151750000Y-49880000D02*
X151750000Y-51720000D01*
X151750000Y-51720000D02*
X155590000Y-51720000D01*
X155590000Y-49880000D02*
X151750000Y-49880000D01*
X155590000Y-51720000D02*
X155590000Y-49880000D01*
X156540000Y-50800000D02*
X155590000Y-50800000D01*
%TO.C,R1*%
X171800000Y-70470000D02*
X171800000Y-74310000D01*
X171800000Y-74310000D02*
X173640000Y-74310000D01*
X172720000Y-69520000D02*
X172720000Y-70470000D01*
X172720000Y-75260000D02*
X172720000Y-74310000D01*
X173640000Y-70470000D02*
X171800000Y-70470000D01*
X173640000Y-74310000D02*
X173640000Y-70470000D01*
%TO.C,C3*%
X173909000Y-104424000D02*
X173909000Y-103856000D01*
X173949000Y-104658000D02*
X173949000Y-103622000D01*
X173989000Y-104817000D02*
X173989000Y-103463000D01*
X174029000Y-104945000D02*
X174029000Y-103335000D01*
X174069000Y-105055000D02*
X174069000Y-103225000D01*
X174109000Y-105151000D02*
X174109000Y-103129000D01*
X174149000Y-105238000D02*
X174149000Y-103042000D01*
X174189000Y-105318000D02*
X174189000Y-102962000D01*
X174229000Y-103100000D02*
X174229000Y-102889000D01*
X174229000Y-105391000D02*
X174229000Y-105180000D01*
X174269000Y-103100000D02*
X174269000Y-102821000D01*
X174269000Y-105459000D02*
X174269000Y-105180000D01*
X174309000Y-103100000D02*
X174309000Y-102757000D01*
X174309000Y-105523000D02*
X174309000Y-105180000D01*
X174349000Y-103100000D02*
X174349000Y-102697000D01*
X174349000Y-105583000D02*
X174349000Y-105180000D01*
X174389000Y-103100000D02*
X174389000Y-102640000D01*
X174389000Y-105640000D02*
X174389000Y-105180000D01*
X174429000Y-103100000D02*
X174429000Y-102586000D01*
X174429000Y-105694000D02*
X174429000Y-105180000D01*
X174469000Y-103100000D02*
X174469000Y-102535000D01*
X174469000Y-105745000D02*
X174469000Y-105180000D01*
X174509000Y-103100000D02*
X174509000Y-102487000D01*
X174509000Y-105793000D02*
X174509000Y-105180000D01*
X174549000Y-103100000D02*
X174549000Y-102441000D01*
X174549000Y-105839000D02*
X174549000Y-105180000D01*
X174589000Y-103100000D02*
X174589000Y-102397000D01*
X174589000Y-105883000D02*
X174589000Y-105180000D01*
X174629000Y-103100000D02*
X174629000Y-102355000D01*
X174629000Y-105925000D02*
X174629000Y-105180000D01*
X174669000Y-103100000D02*
X174669000Y-102314000D01*
X174669000Y-105966000D02*
X174669000Y-105180000D01*
X174709000Y-103100000D02*
X174709000Y-102276000D01*
X174709000Y-106004000D02*
X174709000Y-105180000D01*
X174749000Y-103100000D02*
X174749000Y-102239000D01*
X174749000Y-106041000D02*
X174749000Y-105180000D01*
X174789000Y-103100000D02*
X174789000Y-102203000D01*
X174789000Y-106077000D02*
X174789000Y-105180000D01*
X174829000Y-103100000D02*
X174829000Y-102169000D01*
X174829000Y-106111000D02*
X174829000Y-105180000D01*
X174869000Y-103100000D02*
X174869000Y-102136000D01*
X174869000Y-106144000D02*
X174869000Y-105180000D01*
X174909000Y-103100000D02*
X174909000Y-102105000D01*
X174909000Y-106175000D02*
X174909000Y-105180000D01*
X174949000Y-103100000D02*
X174949000Y-102075000D01*
X174949000Y-106205000D02*
X174949000Y-105180000D01*
X174989000Y-103100000D02*
X174989000Y-102045000D01*
X174989000Y-106235000D02*
X174989000Y-105180000D01*
X175029000Y-103100000D02*
X175029000Y-102018000D01*
X175029000Y-106262000D02*
X175029000Y-105180000D01*
X175069000Y-103100000D02*
X175069000Y-101991000D01*
X175069000Y-106289000D02*
X175069000Y-105180000D01*
X175109000Y-103100000D02*
X175109000Y-101965000D01*
X175109000Y-106315000D02*
X175109000Y-105180000D01*
X175149000Y-103100000D02*
X175149000Y-101940000D01*
X175149000Y-106340000D02*
X175149000Y-105180000D01*
X175189000Y-103100000D02*
X175189000Y-101916000D01*
X175189000Y-106364000D02*
X175189000Y-105180000D01*
X175229000Y-103100000D02*
X175229000Y-101893000D01*
X175229000Y-106387000D02*
X175229000Y-105180000D01*
X175269000Y-103100000D02*
X175269000Y-101872000D01*
X175269000Y-106408000D02*
X175269000Y-105180000D01*
X175309000Y-103100000D02*
X175309000Y-101850000D01*
X175309000Y-106430000D02*
X175309000Y-105180000D01*
X175349000Y-103100000D02*
X175349000Y-101830000D01*
X175349000Y-106450000D02*
X175349000Y-105180000D01*
X175389000Y-103100000D02*
X175389000Y-101811000D01*
X175389000Y-106469000D02*
X175389000Y-105180000D01*
X175429000Y-103100000D02*
X175429000Y-101792000D01*
X175429000Y-106488000D02*
X175429000Y-105180000D01*
X175469000Y-103100000D02*
X175469000Y-101775000D01*
X175469000Y-106505000D02*
X175469000Y-105180000D01*
X175509000Y-103100000D02*
X175509000Y-101758000D01*
X175509000Y-106522000D02*
X175509000Y-105180000D01*
X175549000Y-103100000D02*
X175549000Y-101742000D01*
X175549000Y-106538000D02*
X175549000Y-105180000D01*
X175589000Y-103100000D02*
X175589000Y-101726000D01*
X175589000Y-106554000D02*
X175589000Y-105180000D01*
X175629000Y-103100000D02*
X175629000Y-101712000D01*
X175629000Y-106568000D02*
X175629000Y-105180000D01*
X175669000Y-103100000D02*
X175669000Y-101698000D01*
X175669000Y-106582000D02*
X175669000Y-105180000D01*
X175709000Y-103100000D02*
X175709000Y-101685000D01*
X175709000Y-106595000D02*
X175709000Y-105180000D01*
X175749000Y-103100000D02*
X175749000Y-101672000D01*
X175749000Y-106608000D02*
X175749000Y-105180000D01*
X175789000Y-103100000D02*
X175789000Y-101660000D01*
X175789000Y-106620000D02*
X175789000Y-105180000D01*
X175830000Y-103100000D02*
X175830000Y-101649000D01*
X175830000Y-106631000D02*
X175830000Y-105180000D01*
X175870000Y-103100000D02*
X175870000Y-101639000D01*
X175870000Y-106641000D02*
X175870000Y-105180000D01*
X175910000Y-103100000D02*
X175910000Y-101629000D01*
X175910000Y-106651000D02*
X175910000Y-105180000D01*
X175950000Y-103100000D02*
X175950000Y-101620000D01*
X175950000Y-106660000D02*
X175950000Y-105180000D01*
X175990000Y-103100000D02*
X175990000Y-101612000D01*
X175990000Y-106668000D02*
X175990000Y-105180000D01*
X176030000Y-103100000D02*
X176030000Y-101604000D01*
X176030000Y-106676000D02*
X176030000Y-105180000D01*
X176070000Y-103100000D02*
X176070000Y-101597000D01*
X176070000Y-106683000D02*
X176070000Y-105180000D01*
X176110000Y-103100000D02*
X176110000Y-101590000D01*
X176110000Y-106690000D02*
X176110000Y-105180000D01*
X176150000Y-103100000D02*
X176150000Y-101584000D01*
X176150000Y-106696000D02*
X176150000Y-105180000D01*
X176190000Y-103100000D02*
X176190000Y-101579000D01*
X176190000Y-106701000D02*
X176190000Y-105180000D01*
X176230000Y-103100000D02*
X176230000Y-101575000D01*
X176230000Y-106705000D02*
X176230000Y-105180000D01*
X176270000Y-103100000D02*
X176270000Y-101571000D01*
X176270000Y-106709000D02*
X176270000Y-105180000D01*
X176310000Y-106713000D02*
X176310000Y-101567000D01*
X176350000Y-106716000D02*
X176350000Y-101564000D01*
X176390000Y-106718000D02*
X176390000Y-101562000D01*
X176430000Y-106719000D02*
X176430000Y-101561000D01*
X176470000Y-106720000D02*
X176470000Y-101560000D01*
X176510000Y-106720000D02*
X176510000Y-101560000D01*
X179064775Y-105865000D02*
X179064775Y-105365000D01*
X179314775Y-105615000D02*
X178814775Y-105615000D01*
X179130000Y-104140000D02*
G75*
G02*
X173890000Y-104140000I-2620000J0D01*
G01*
X173890000Y-104140000D02*
G75*
G02*
X179130000Y-104140000I2620000J0D01*
G01*
%TO.C,U5*%
X161230000Y-102760000D02*
X161230000Y-104410000D01*
X161230000Y-106410000D02*
X161230000Y-108060000D01*
X161230000Y-108060000D02*
X171510000Y-108060000D01*
X171510000Y-102760000D02*
X161230000Y-102760000D01*
X171510000Y-108060000D02*
X171510000Y-102760000D01*
X161230000Y-104410000D02*
G75*
G02*
X161230000Y-106410000I0J-1000000D01*
G01*
%TO.C,R8*%
X150800000Y-63500000D02*
X151750000Y-63500000D01*
X151750000Y-62580000D02*
X151750000Y-64420000D01*
X151750000Y-64420000D02*
X155590000Y-64420000D01*
X155590000Y-62580000D02*
X151750000Y-62580000D01*
X155590000Y-64420000D02*
X155590000Y-62580000D01*
X156540000Y-63500000D02*
X155590000Y-63500000D01*
%TO.C,R11*%
X150800000Y-43180000D02*
X151750000Y-43180000D01*
X151750000Y-42260000D02*
X151750000Y-44100000D01*
X151750000Y-44100000D02*
X155590000Y-44100000D01*
X155590000Y-42260000D02*
X151750000Y-42260000D01*
X155590000Y-44100000D02*
X155590000Y-42260000D01*
X156540000Y-43180000D02*
X155590000Y-43180000D01*
%TO.C,R7*%
X150800000Y-60960000D02*
X151750000Y-60960000D01*
X151750000Y-60040000D02*
X151750000Y-61880000D01*
X151750000Y-61880000D02*
X155590000Y-61880000D01*
X155590000Y-60040000D02*
X151750000Y-60040000D01*
X155590000Y-61880000D02*
X155590000Y-60040000D01*
X156540000Y-60960000D02*
X155590000Y-60960000D01*
%TO.C,J1*%
X156150000Y-115630000D02*
X158810000Y-115630000D01*
X156150000Y-113030000D02*
X156150000Y-115630000D01*
X156150000Y-113030000D02*
X158810000Y-113030000D01*
X158810000Y-113030000D02*
X158810000Y-115630000D01*
X156150000Y-111760000D02*
X156150000Y-110430000D01*
X156150000Y-110430000D02*
X157480000Y-110430000D01*
%TO.C,U2*%
X143400000Y-90230000D02*
X145050000Y-90230000D01*
X147050000Y-90230000D02*
X148700000Y-90230000D01*
X148700000Y-90230000D02*
X148700000Y-79950000D01*
X143400000Y-79950000D02*
X143400000Y-90230000D01*
X148700000Y-79950000D02*
X143400000Y-79950000D01*
X145050000Y-90230000D02*
G75*
G02*
X147050000Y-90230000I1000000J0D01*
G01*
%TO.C,RV2*%
X189040000Y-86319000D02*
G75*
G02*
X181800000Y-86319000I-3620000J0D01*
G01*
X181800000Y-86319000D02*
G75*
G02*
X189040000Y-86319000I3620000J0D01*
G01*
%TO.C,U3*%
X140860000Y-46925000D02*
X140860000Y-64825000D01*
X140860000Y-64825000D02*
X146160000Y-64825000D01*
X142510000Y-46925000D02*
X140860000Y-46925000D01*
X146160000Y-46925000D02*
X144510000Y-46925000D01*
X146160000Y-64825000D02*
X146160000Y-46925000D01*
X144510000Y-46925000D02*
G75*
G02*
X142510000Y-46925000I-1000000J0D01*
G01*
%TO.C,U1*%
X158690000Y-79900000D02*
X158690000Y-81550000D01*
X158690000Y-83550000D02*
X158690000Y-85200000D01*
X158690000Y-85200000D02*
X176590000Y-85200000D01*
X176590000Y-79900000D02*
X158690000Y-79900000D01*
X176590000Y-85200000D02*
X176590000Y-79900000D01*
X158690000Y-81550000D02*
G75*
G02*
X158690000Y-83550000I0J-1000000D01*
G01*
%TO.C,RV4*%
X140739000Y-71120000D02*
G75*
G02*
X133499000Y-71120000I-3620000J0D01*
G01*
X133499000Y-71120000D02*
G75*
G02*
X140739000Y-71120000I3620000J0D01*
G01*
%TO.C,R3*%
X161640000Y-70470000D02*
X161640000Y-74310000D01*
X161640000Y-74310000D02*
X163480000Y-74310000D01*
X162560000Y-69520000D02*
X162560000Y-70470000D01*
X162560000Y-75260000D02*
X162560000Y-74310000D01*
X163480000Y-70470000D02*
X161640000Y-70470000D01*
X163480000Y-74310000D02*
X163480000Y-70470000D01*
%TO.C,C1*%
X173785000Y-113274775D02*
X173785000Y-112774775D01*
X173535000Y-113024775D02*
X174035000Y-113024775D01*
X172680000Y-110470000D02*
X177840000Y-110470000D01*
X172680000Y-110430000D02*
X177840000Y-110430000D01*
X172681000Y-110390000D02*
X177839000Y-110390000D01*
X172682000Y-110350000D02*
X177838000Y-110350000D01*
X172684000Y-110310000D02*
X177836000Y-110310000D01*
X172687000Y-110270000D02*
X177833000Y-110270000D01*
X172691000Y-110230000D02*
X174220000Y-110230000D01*
X176300000Y-110230000D02*
X177829000Y-110230000D01*
X172695000Y-110190000D02*
X174220000Y-110190000D01*
X176300000Y-110190000D02*
X177825000Y-110190000D01*
X172699000Y-110150000D02*
X174220000Y-110150000D01*
X176300000Y-110150000D02*
X177821000Y-110150000D01*
X172704000Y-110110000D02*
X174220000Y-110110000D01*
X176300000Y-110110000D02*
X177816000Y-110110000D01*
X172710000Y-110070000D02*
X174220000Y-110070000D01*
X176300000Y-110070000D02*
X177810000Y-110070000D01*
X172717000Y-110030000D02*
X174220000Y-110030000D01*
X176300000Y-110030000D02*
X177803000Y-110030000D01*
X172724000Y-109990000D02*
X174220000Y-109990000D01*
X176300000Y-109990000D02*
X177796000Y-109990000D01*
X172732000Y-109950000D02*
X174220000Y-109950000D01*
X176300000Y-109950000D02*
X177788000Y-109950000D01*
X172740000Y-109910000D02*
X174220000Y-109910000D01*
X176300000Y-109910000D02*
X177780000Y-109910000D01*
X172749000Y-109870000D02*
X174220000Y-109870000D01*
X176300000Y-109870000D02*
X177771000Y-109870000D01*
X172759000Y-109830000D02*
X174220000Y-109830000D01*
X176300000Y-109830000D02*
X177761000Y-109830000D01*
X172769000Y-109790000D02*
X174220000Y-109790000D01*
X176300000Y-109790000D02*
X177751000Y-109790000D01*
X172780000Y-109749000D02*
X174220000Y-109749000D01*
X176300000Y-109749000D02*
X177740000Y-109749000D01*
X172792000Y-109709000D02*
X174220000Y-109709000D01*
X176300000Y-109709000D02*
X177728000Y-109709000D01*
X172805000Y-109669000D02*
X174220000Y-109669000D01*
X176300000Y-109669000D02*
X177715000Y-109669000D01*
X172818000Y-109629000D02*
X174220000Y-109629000D01*
X176300000Y-109629000D02*
X177702000Y-109629000D01*
X172832000Y-109589000D02*
X174220000Y-109589000D01*
X176300000Y-109589000D02*
X177688000Y-109589000D01*
X172846000Y-109549000D02*
X174220000Y-109549000D01*
X176300000Y-109549000D02*
X177674000Y-109549000D01*
X172862000Y-109509000D02*
X174220000Y-109509000D01*
X176300000Y-109509000D02*
X177658000Y-109509000D01*
X172878000Y-109469000D02*
X174220000Y-109469000D01*
X176300000Y-109469000D02*
X177642000Y-109469000D01*
X172895000Y-109429000D02*
X174220000Y-109429000D01*
X176300000Y-109429000D02*
X177625000Y-109429000D01*
X172912000Y-109389000D02*
X174220000Y-109389000D01*
X176300000Y-109389000D02*
X177608000Y-109389000D01*
X172931000Y-109349000D02*
X174220000Y-109349000D01*
X176300000Y-109349000D02*
X177589000Y-109349000D01*
X172950000Y-109309000D02*
X174220000Y-109309000D01*
X176300000Y-109309000D02*
X177570000Y-109309000D01*
X172970000Y-109269000D02*
X174220000Y-109269000D01*
X176300000Y-109269000D02*
X177550000Y-109269000D01*
X172992000Y-109229000D02*
X174220000Y-109229000D01*
X176300000Y-109229000D02*
X177528000Y-109229000D01*
X173013000Y-109189000D02*
X174220000Y-109189000D01*
X176300000Y-109189000D02*
X177507000Y-109189000D01*
X173036000Y-109149000D02*
X174220000Y-109149000D01*
X176300000Y-109149000D02*
X177484000Y-109149000D01*
X173060000Y-109109000D02*
X174220000Y-109109000D01*
X176300000Y-109109000D02*
X177460000Y-109109000D01*
X173085000Y-109069000D02*
X174220000Y-109069000D01*
X176300000Y-109069000D02*
X177435000Y-109069000D01*
X173111000Y-109029000D02*
X174220000Y-109029000D01*
X176300000Y-109029000D02*
X177409000Y-109029000D01*
X173138000Y-108989000D02*
X174220000Y-108989000D01*
X176300000Y-108989000D02*
X177382000Y-108989000D01*
X173165000Y-108949000D02*
X174220000Y-108949000D01*
X176300000Y-108949000D02*
X177355000Y-108949000D01*
X173195000Y-108909000D02*
X174220000Y-108909000D01*
X176300000Y-108909000D02*
X177325000Y-108909000D01*
X173225000Y-108869000D02*
X174220000Y-108869000D01*
X176300000Y-108869000D02*
X177295000Y-108869000D01*
X173256000Y-108829000D02*
X174220000Y-108829000D01*
X176300000Y-108829000D02*
X177264000Y-108829000D01*
X173289000Y-108789000D02*
X174220000Y-108789000D01*
X176300000Y-108789000D02*
X177231000Y-108789000D01*
X173323000Y-108749000D02*
X174220000Y-108749000D01*
X176300000Y-108749000D02*
X177197000Y-108749000D01*
X173359000Y-108709000D02*
X174220000Y-108709000D01*
X176300000Y-108709000D02*
X177161000Y-108709000D01*
X173396000Y-108669000D02*
X174220000Y-108669000D01*
X176300000Y-108669000D02*
X177124000Y-108669000D01*
X173434000Y-108629000D02*
X174220000Y-108629000D01*
X176300000Y-108629000D02*
X177086000Y-108629000D01*
X173475000Y-108589000D02*
X174220000Y-108589000D01*
X176300000Y-108589000D02*
X177045000Y-108589000D01*
X173517000Y-108549000D02*
X174220000Y-108549000D01*
X176300000Y-108549000D02*
X177003000Y-108549000D01*
X173561000Y-108509000D02*
X174220000Y-108509000D01*
X176300000Y-108509000D02*
X176959000Y-108509000D01*
X173607000Y-108469000D02*
X174220000Y-108469000D01*
X176300000Y-108469000D02*
X176913000Y-108469000D01*
X173655000Y-108429000D02*
X174220000Y-108429000D01*
X176300000Y-108429000D02*
X176865000Y-108429000D01*
X173706000Y-108389000D02*
X174220000Y-108389000D01*
X176300000Y-108389000D02*
X176814000Y-108389000D01*
X173760000Y-108349000D02*
X174220000Y-108349000D01*
X176300000Y-108349000D02*
X176760000Y-108349000D01*
X173817000Y-108309000D02*
X174220000Y-108309000D01*
X176300000Y-108309000D02*
X176703000Y-108309000D01*
X173877000Y-108269000D02*
X174220000Y-108269000D01*
X176300000Y-108269000D02*
X176643000Y-108269000D01*
X173941000Y-108229000D02*
X174220000Y-108229000D01*
X176300000Y-108229000D02*
X176579000Y-108229000D01*
X174009000Y-108189000D02*
X174220000Y-108189000D01*
X176300000Y-108189000D02*
X176511000Y-108189000D01*
X174082000Y-108149000D02*
X176438000Y-108149000D01*
X174162000Y-108109000D02*
X176358000Y-108109000D01*
X174249000Y-108069000D02*
X176271000Y-108069000D01*
X174345000Y-108029000D02*
X176175000Y-108029000D01*
X174455000Y-107989000D02*
X176065000Y-107989000D01*
X174583000Y-107949000D02*
X175937000Y-107949000D01*
X174742000Y-107909000D02*
X175778000Y-107909000D01*
X174976000Y-107869000D02*
X175544000Y-107869000D01*
X177880000Y-110470000D02*
G75*
G02*
X172640000Y-110470000I-2620000J0D01*
G01*
X172640000Y-110470000D02*
G75*
G02*
X177880000Y-110470000I2620000J0D01*
G01*
%TO.C,C2*%
X153629000Y-101884000D02*
X153629000Y-101316000D01*
X153669000Y-102118000D02*
X153669000Y-101082000D01*
X153709000Y-102277000D02*
X153709000Y-100923000D01*
X153749000Y-102405000D02*
X153749000Y-100795000D01*
X153789000Y-102515000D02*
X153789000Y-100685000D01*
X153829000Y-102611000D02*
X153829000Y-100589000D01*
X153869000Y-102698000D02*
X153869000Y-100502000D01*
X153909000Y-102778000D02*
X153909000Y-100422000D01*
X153949000Y-100560000D02*
X153949000Y-100349000D01*
X153949000Y-102851000D02*
X153949000Y-102640000D01*
X153989000Y-100560000D02*
X153989000Y-100281000D01*
X153989000Y-102919000D02*
X153989000Y-102640000D01*
X154029000Y-100560000D02*
X154029000Y-100217000D01*
X154029000Y-102983000D02*
X154029000Y-102640000D01*
X154069000Y-100560000D02*
X154069000Y-100157000D01*
X154069000Y-103043000D02*
X154069000Y-102640000D01*
X154109000Y-100560000D02*
X154109000Y-100100000D01*
X154109000Y-103100000D02*
X154109000Y-102640000D01*
X154149000Y-100560000D02*
X154149000Y-100046000D01*
X154149000Y-103154000D02*
X154149000Y-102640000D01*
X154189000Y-100560000D02*
X154189000Y-99995000D01*
X154189000Y-103205000D02*
X154189000Y-102640000D01*
X154229000Y-100560000D02*
X154229000Y-99947000D01*
X154229000Y-103253000D02*
X154229000Y-102640000D01*
X154269000Y-100560000D02*
X154269000Y-99901000D01*
X154269000Y-103299000D02*
X154269000Y-102640000D01*
X154309000Y-100560000D02*
X154309000Y-99857000D01*
X154309000Y-103343000D02*
X154309000Y-102640000D01*
X154349000Y-100560000D02*
X154349000Y-99815000D01*
X154349000Y-103385000D02*
X154349000Y-102640000D01*
X154389000Y-100560000D02*
X154389000Y-99774000D01*
X154389000Y-103426000D02*
X154389000Y-102640000D01*
X154429000Y-100560000D02*
X154429000Y-99736000D01*
X154429000Y-103464000D02*
X154429000Y-102640000D01*
X154469000Y-100560000D02*
X154469000Y-99699000D01*
X154469000Y-103501000D02*
X154469000Y-102640000D01*
X154509000Y-100560000D02*
X154509000Y-99663000D01*
X154509000Y-103537000D02*
X154509000Y-102640000D01*
X154549000Y-100560000D02*
X154549000Y-99629000D01*
X154549000Y-103571000D02*
X154549000Y-102640000D01*
X154589000Y-100560000D02*
X154589000Y-99596000D01*
X154589000Y-103604000D02*
X154589000Y-102640000D01*
X154629000Y-100560000D02*
X154629000Y-99565000D01*
X154629000Y-103635000D02*
X154629000Y-102640000D01*
X154669000Y-100560000D02*
X154669000Y-99535000D01*
X154669000Y-103665000D02*
X154669000Y-102640000D01*
X154709000Y-100560000D02*
X154709000Y-99505000D01*
X154709000Y-103695000D02*
X154709000Y-102640000D01*
X154749000Y-100560000D02*
X154749000Y-99478000D01*
X154749000Y-103722000D02*
X154749000Y-102640000D01*
X154789000Y-100560000D02*
X154789000Y-99451000D01*
X154789000Y-103749000D02*
X154789000Y-102640000D01*
X154829000Y-100560000D02*
X154829000Y-99425000D01*
X154829000Y-103775000D02*
X154829000Y-102640000D01*
X154869000Y-100560000D02*
X154869000Y-99400000D01*
X154869000Y-103800000D02*
X154869000Y-102640000D01*
X154909000Y-100560000D02*
X154909000Y-99376000D01*
X154909000Y-103824000D02*
X154909000Y-102640000D01*
X154949000Y-100560000D02*
X154949000Y-99353000D01*
X154949000Y-103847000D02*
X154949000Y-102640000D01*
X154989000Y-100560000D02*
X154989000Y-99332000D01*
X154989000Y-103868000D02*
X154989000Y-102640000D01*
X155029000Y-100560000D02*
X155029000Y-99310000D01*
X155029000Y-103890000D02*
X155029000Y-102640000D01*
X155069000Y-100560000D02*
X155069000Y-99290000D01*
X155069000Y-103910000D02*
X155069000Y-102640000D01*
X155109000Y-100560000D02*
X155109000Y-99271000D01*
X155109000Y-103929000D02*
X155109000Y-102640000D01*
X155149000Y-100560000D02*
X155149000Y-99252000D01*
X155149000Y-103948000D02*
X155149000Y-102640000D01*
X155189000Y-100560000D02*
X155189000Y-99235000D01*
X155189000Y-103965000D02*
X155189000Y-102640000D01*
X155229000Y-100560000D02*
X155229000Y-99218000D01*
X155229000Y-103982000D02*
X155229000Y-102640000D01*
X155269000Y-100560000D02*
X155269000Y-99202000D01*
X155269000Y-103998000D02*
X155269000Y-102640000D01*
X155309000Y-100560000D02*
X155309000Y-99186000D01*
X155309000Y-104014000D02*
X155309000Y-102640000D01*
X155349000Y-100560000D02*
X155349000Y-99172000D01*
X155349000Y-104028000D02*
X155349000Y-102640000D01*
X155389000Y-100560000D02*
X155389000Y-99158000D01*
X155389000Y-104042000D02*
X155389000Y-102640000D01*
X155429000Y-100560000D02*
X155429000Y-99145000D01*
X155429000Y-104055000D02*
X155429000Y-102640000D01*
X155469000Y-100560000D02*
X155469000Y-99132000D01*
X155469000Y-104068000D02*
X155469000Y-102640000D01*
X155509000Y-100560000D02*
X155509000Y-99120000D01*
X155509000Y-104080000D02*
X155509000Y-102640000D01*
X155550000Y-100560000D02*
X155550000Y-99109000D01*
X155550000Y-104091000D02*
X155550000Y-102640000D01*
X155590000Y-100560000D02*
X155590000Y-99099000D01*
X155590000Y-104101000D02*
X155590000Y-102640000D01*
X155630000Y-100560000D02*
X155630000Y-99089000D01*
X155630000Y-104111000D02*
X155630000Y-102640000D01*
X155670000Y-100560000D02*
X155670000Y-99080000D01*
X155670000Y-104120000D02*
X155670000Y-102640000D01*
X155710000Y-100560000D02*
X155710000Y-99072000D01*
X155710000Y-104128000D02*
X155710000Y-102640000D01*
X155750000Y-100560000D02*
X155750000Y-99064000D01*
X155750000Y-104136000D02*
X155750000Y-102640000D01*
X155790000Y-100560000D02*
X155790000Y-99057000D01*
X155790000Y-104143000D02*
X155790000Y-102640000D01*
X155830000Y-100560000D02*
X155830000Y-99050000D01*
X155830000Y-104150000D02*
X155830000Y-102640000D01*
X155870000Y-100560000D02*
X155870000Y-99044000D01*
X155870000Y-104156000D02*
X155870000Y-102640000D01*
X155910000Y-100560000D02*
X155910000Y-99039000D01*
X155910000Y-104161000D02*
X155910000Y-102640000D01*
X155950000Y-100560000D02*
X155950000Y-99035000D01*
X155950000Y-104165000D02*
X155950000Y-102640000D01*
X155990000Y-100560000D02*
X155990000Y-99031000D01*
X155990000Y-104169000D02*
X155990000Y-102640000D01*
X156030000Y-104173000D02*
X156030000Y-99027000D01*
X156070000Y-104176000D02*
X156070000Y-99024000D01*
X156110000Y-104178000D02*
X156110000Y-99022000D01*
X156150000Y-104179000D02*
X156150000Y-99021000D01*
X156190000Y-104180000D02*
X156190000Y-99020000D01*
X156230000Y-104180000D02*
X156230000Y-99020000D01*
X158784775Y-103325000D02*
X158784775Y-102825000D01*
X159034775Y-103075000D02*
X158534775Y-103075000D01*
X158850000Y-101600000D02*
G75*
G02*
X153610000Y-101600000I-2620000J0D01*
G01*
X153610000Y-101600000D02*
G75*
G02*
X158850000Y-101600000I2620000J0D01*
G01*
%TO.C,RV1*%
X189040000Y-76159000D02*
G75*
G02*
X181800000Y-76159000I-3620000J0D01*
G01*
X181800000Y-76159000D02*
G75*
G02*
X189040000Y-76159000I3620000J0D01*
G01*
%TO.C,R10*%
X171120000Y-63500000D02*
X172070000Y-63500000D01*
X172070000Y-62580000D02*
X172070000Y-64420000D01*
X172070000Y-64420000D02*
X175910000Y-64420000D01*
X175910000Y-62580000D02*
X172070000Y-62580000D01*
X175910000Y-64420000D02*
X175910000Y-62580000D01*
X176860000Y-63500000D02*
X175910000Y-63500000D01*
%TO.C,RV3*%
X143320000Y-40599000D02*
G75*
G02*
X136080000Y-40599000I-3620000J0D01*
G01*
X136080000Y-40599000D02*
G75*
G02*
X143320000Y-40599000I3620000J0D01*
G01*
%TO.C,R2*%
X174340000Y-70470000D02*
X174340000Y-74310000D01*
X174340000Y-74310000D02*
X176180000Y-74310000D01*
X175260000Y-69520000D02*
X175260000Y-70470000D01*
X175260000Y-75260000D02*
X175260000Y-74310000D01*
X176180000Y-70470000D02*
X174340000Y-70470000D01*
X176180000Y-74310000D02*
X176180000Y-70470000D01*
%TO.C,R6*%
X150800000Y-48260000D02*
X151750000Y-48260000D01*
X151750000Y-47340000D02*
X151750000Y-49180000D01*
X151750000Y-49180000D02*
X155590000Y-49180000D01*
X155590000Y-47340000D02*
X151750000Y-47340000D01*
X155590000Y-49180000D02*
X155590000Y-47340000D01*
X156540000Y-48260000D02*
X155590000Y-48260000D01*
%TD*%
M02*
