%TF.GenerationSoftware,KiCad,Pcbnew,8.0.8*%
%TF.CreationDate,2025-02-20T08:22:17+09:00*%
%TF.ProjectId,kicad_patchBox,6b696361-645f-4706-9174-6368426f782e,rev?*%
%TF.SameCoordinates,Original*%
%TF.FileFunction,Copper,L2,Bot*%
%TF.FilePolarity,Positive*%
%FSLAX46Y46*%
G04 Gerber Fmt 4.6, Leading zero omitted, Abs format (unit mm)*
G04 Created by KiCad (PCBNEW 8.0.8) date 2025-02-20 08:22:17*
%MOMM*%
%LPD*%
G01*
G04 APERTURE LIST*
%TA.AperFunction,ComponentPad*%
%ADD10R,1.600000X1.600000*%
%TD*%
%TA.AperFunction,ComponentPad*%
%ADD11O,1.600000X1.600000*%
%TD*%
%TA.AperFunction,ComponentPad*%
%ADD12C,1.400000*%
%TD*%
%TA.AperFunction,ComponentPad*%
%ADD13O,1.400000X1.400000*%
%TD*%
%TA.AperFunction,ComponentPad*%
%ADD14C,1.600000*%
%TD*%
%TA.AperFunction,ComponentPad*%
%ADD15R,1.700000X1.700000*%
%TD*%
%TA.AperFunction,ComponentPad*%
%ADD16O,1.700000X1.700000*%
%TD*%
%TA.AperFunction,ComponentPad*%
%ADD17C,1.440000*%
%TD*%
%TA.AperFunction,ViaPad*%
%ADD18C,2.000000*%
%TD*%
%TA.AperFunction,Conductor*%
%ADD19C,0.200000*%
%TD*%
%TA.AperFunction,Conductor*%
%ADD20C,0.400000*%
%TD*%
G04 APERTURE END LIST*
D10*
%TO.P,U4,1*%
%TO.N,/WDL_Out*%
X165100000Y-43180000D03*
D11*
%TO.P,U4,2,-*%
%TO.N,Net-(U4A--)*%
X165100000Y-45720000D03*
%TO.P,U4,3,+*%
%TO.N,GND*%
X165100000Y-48260000D03*
%TO.P,U4,4,V-*%
%TO.N,-8V*%
X165100000Y-50800000D03*
%TO.P,U4,5,+*%
%TO.N,GND*%
X172720000Y-50800000D03*
%TO.P,U4,6,-*%
%TO.N,Net-(U4B--)*%
X172720000Y-48260000D03*
%TO.P,U4,7*%
%TO.N,/WDR_Out*%
X172720000Y-45720000D03*
%TO.P,U4,8,V+*%
%TO.N,+9V*%
X172720000Y-43180000D03*
%TD*%
D12*
%TO.P,R9,1*%
%TO.N,Net-(U4B--)*%
X170180000Y-60960000D03*
D13*
%TO.P,R9,2*%
%TO.N,/WetL_Inv*%
X162560000Y-60960000D03*
%TD*%
D12*
%TO.P,R4,1*%
%TO.N,/Dry2*%
X160020000Y-76200000D03*
D13*
%TO.P,R4,2*%
%TO.N,Net-(U1D--)*%
X160020000Y-68580000D03*
%TD*%
D12*
%TO.P,R12,1*%
%TO.N,Net-(U4A--)*%
X160020000Y-43180000D03*
D13*
%TO.P,R12,2*%
%TO.N,/Dry2*%
X160020000Y-50800000D03*
%TD*%
D12*
%TO.P,R5,1*%
%TO.N,Net-(U3D--)*%
X149860000Y-50800000D03*
D13*
%TO.P,R5,2*%
%TO.N,Net-(R5-Pad2)*%
X157480000Y-50800000D03*
%TD*%
D12*
%TO.P,R1,1*%
%TO.N,Net-(U1C--)*%
X172720000Y-76200000D03*
D13*
%TO.P,R1,2*%
%TO.N,Net-(R1-Pad2)*%
X172720000Y-68580000D03*
%TD*%
D10*
%TO.P,C3,1*%
%TO.N,GND*%
X177760000Y-104140000D03*
D14*
%TO.P,C3,2*%
%TO.N,-8V*%
X175260000Y-104140000D03*
%TD*%
D10*
%TO.P,U5,1,FB/SHDN*%
%TO.N,unconnected-(U5-FB{slash}SHDN-Pad1)*%
X162560000Y-109220000D03*
D11*
%TO.P,U5,2,CAP+*%
%TO.N,Net-(U5-CAP+)*%
X165100000Y-109220000D03*
%TO.P,U5,3,GND*%
%TO.N,GND*%
X167640000Y-109220000D03*
%TO.P,U5,4,CAP-*%
%TO.N,Net-(U5-CAP-)*%
X170180000Y-109220000D03*
%TO.P,U5,5,-VOUT*%
%TO.N,-8V*%
X170180000Y-101600000D03*
%TO.P,U5,6,VREF*%
%TO.N,unconnected-(U5-VREF-Pad6)*%
X167640000Y-101600000D03*
%TO.P,U5,7,OSC*%
%TO.N,unconnected-(U5-OSC-Pad7)*%
X165100000Y-101600000D03*
%TO.P,U5,8,V+*%
%TO.N,+9V*%
X162560000Y-101600000D03*
%TD*%
D12*
%TO.P,R8,1*%
%TO.N,/WetL_Inv*%
X149860000Y-63500000D03*
D13*
%TO.P,R8,2*%
%TO.N,Net-(U3C--)*%
X157480000Y-63500000D03*
%TD*%
D12*
%TO.P,R11,1*%
%TO.N,Net-(U4A--)*%
X157480000Y-43180000D03*
D13*
%TO.P,R11,2*%
%TO.N,/WetR_Inv*%
X149860000Y-43180000D03*
%TD*%
D12*
%TO.P,R7,1*%
%TO.N,Net-(U3C--)*%
X149860000Y-60960000D03*
D13*
%TO.P,R7,2*%
%TO.N,Net-(R7-Pad2)*%
X157480000Y-60960000D03*
%TD*%
D15*
%TO.P,J1,1,Pin_1*%
%TO.N,+9V*%
X157480000Y-111760000D03*
D16*
%TO.P,J1,2,Pin_2*%
%TO.N,GND*%
X157480000Y-114300000D03*
%TD*%
D10*
%TO.P,U2,1,NULL*%
%TO.N,unconnected-(U2-NULL-Pad1)*%
X149860000Y-88900000D03*
D11*
%TO.P,U2,2,-*%
%TO.N,/Dry_Buffered_Bypass*%
X149860000Y-86360000D03*
%TO.P,U2,3,+*%
%TO.N,/Dry_In*%
X149860000Y-83820000D03*
%TO.P,U2,4,V-*%
%TO.N,-8V*%
X149860000Y-81280000D03*
%TO.P,U2,5,NULL*%
%TO.N,unconnected-(U2-NULL-Pad5)*%
X142240000Y-81280000D03*
%TO.P,U2,6*%
%TO.N,/Dry_Buffered_Bypass*%
X142240000Y-83820000D03*
%TO.P,U2,7,V+*%
%TO.N,+9V*%
X142240000Y-86360000D03*
%TO.P,U2,8,NC*%
%TO.N,unconnected-(U2-NC-Pad8)*%
X142240000Y-88900000D03*
%TD*%
D17*
%TO.P,RV2,1,1*%
%TO.N,Net-(U1B--)*%
X182880000Y-86360000D03*
%TO.P,RV2,2,2*%
%TO.N,Net-(R1-Pad2)*%
X185420000Y-88900000D03*
%TO.P,RV2,3,3*%
%TO.N,GND*%
X187960000Y-86360000D03*
%TD*%
D10*
%TO.P,U3,1*%
%TO.N,Net-(U3A--)*%
X139700000Y-48255000D03*
D11*
%TO.P,U3,2,-*%
X139700000Y-50795000D03*
%TO.P,U3,3,+*%
%TO.N,/Wet_Right_In*%
X139700000Y-53335000D03*
%TO.P,U3,4,V+*%
%TO.N,+9V*%
X139700000Y-55875000D03*
%TO.P,U3,5,+*%
%TO.N,/Wet_Left_In*%
X139700000Y-58415000D03*
%TO.P,U3,6,-*%
%TO.N,Net-(U3B--)*%
X139700000Y-60955000D03*
%TO.P,U3,7*%
X139700000Y-63495000D03*
%TO.P,U3,8*%
%TO.N,/WetL_Inv*%
X147320000Y-63495000D03*
%TO.P,U3,9,-*%
%TO.N,Net-(U3C--)*%
X147320000Y-60955000D03*
%TO.P,U3,10,+*%
%TO.N,GND*%
X147320000Y-58415000D03*
%TO.P,U3,11,V-*%
%TO.N,-8V*%
X147320000Y-55875000D03*
%TO.P,U3,12,+*%
%TO.N,GND*%
X147320000Y-53335000D03*
%TO.P,U3,13,-*%
%TO.N,Net-(U3D--)*%
X147320000Y-50795000D03*
%TO.P,U3,14*%
%TO.N,/WetR_Inv*%
X147320000Y-48255000D03*
%TD*%
D10*
%TO.P,U1,1*%
%TO.N,Net-(U1A--)*%
X160020000Y-86360000D03*
D11*
%TO.P,U1,2,-*%
X162560000Y-86360000D03*
%TO.P,U1,3,+*%
%TO.N,/Dry_In*%
X165100000Y-86360000D03*
%TO.P,U1,4,V+*%
%TO.N,+9V*%
X167640000Y-86360000D03*
%TO.P,U1,5,+*%
%TO.N,/Dry_In*%
X170180000Y-86360000D03*
%TO.P,U1,6,-*%
%TO.N,Net-(U1B--)*%
X172720000Y-86360000D03*
%TO.P,U1,7*%
X175260000Y-86360000D03*
%TO.P,U1,8*%
%TO.N,/Dry1*%
X175260000Y-78740000D03*
%TO.P,U1,9,-*%
%TO.N,Net-(U1C--)*%
X172720000Y-78740000D03*
%TO.P,U1,10,+*%
%TO.N,GND*%
X170180000Y-78740000D03*
%TO.P,U1,11,V-*%
%TO.N,-8V*%
X167640000Y-78740000D03*
%TO.P,U1,12,+*%
%TO.N,GND*%
X165100000Y-78740000D03*
%TO.P,U1,13,-*%
%TO.N,Net-(U1D--)*%
X162560000Y-78740000D03*
%TO.P,U1,14*%
%TO.N,/Dry2*%
X160020000Y-78740000D03*
%TD*%
D17*
%TO.P,RV4,1,1*%
%TO.N,Net-(U3B--)*%
X137160000Y-73660000D03*
%TO.P,RV4,2,2*%
%TO.N,Net-(R7-Pad2)*%
X139700000Y-71120000D03*
%TO.P,RV4,3,3*%
%TO.N,GND*%
X137160000Y-68580000D03*
%TD*%
D12*
%TO.P,R3,1*%
%TO.N,Net-(U1D--)*%
X162560000Y-76200000D03*
D13*
%TO.P,R3,2*%
%TO.N,Net-(R3-Pad2)*%
X162560000Y-68580000D03*
%TD*%
D10*
%TO.P,C1,1*%
%TO.N,Net-(U5-CAP+)*%
X175260000Y-111720000D03*
D14*
%TO.P,C1,2*%
%TO.N,Net-(U5-CAP-)*%
X175260000Y-109220000D03*
%TD*%
D10*
%TO.P,C2,1*%
%TO.N,+9V*%
X157480000Y-101600000D03*
D14*
%TO.P,C2,2*%
%TO.N,GND*%
X154980000Y-101600000D03*
%TD*%
D17*
%TO.P,RV1,1,1*%
%TO.N,Net-(U1A--)*%
X182880000Y-76200000D03*
%TO.P,RV1,2,2*%
%TO.N,Net-(R3-Pad2)*%
X185420000Y-78740000D03*
%TO.P,RV1,3,3*%
%TO.N,GND*%
X187960000Y-76200000D03*
%TD*%
D12*
%TO.P,R10,1*%
%TO.N,Net-(U4B--)*%
X170180000Y-63500000D03*
D13*
%TO.P,R10,2*%
%TO.N,/Dry1*%
X177800000Y-63500000D03*
%TD*%
D17*
%TO.P,RV3,1,1*%
%TO.N,Net-(U3A--)*%
X137160000Y-40640000D03*
%TO.P,RV3,2,2*%
%TO.N,Net-(R5-Pad2)*%
X139700000Y-43180000D03*
%TO.P,RV3,3,3*%
%TO.N,GND*%
X142240000Y-40640000D03*
%TD*%
D12*
%TO.P,R2,1*%
%TO.N,/Dry1*%
X175260000Y-76200000D03*
D13*
%TO.P,R2,2*%
%TO.N,Net-(U1C--)*%
X175260000Y-68580000D03*
%TD*%
D12*
%TO.P,R6,1*%
%TO.N,/WetR_Inv*%
X149860000Y-48260000D03*
D13*
%TO.P,R6,2*%
%TO.N,Net-(U3D--)*%
X157480000Y-48260000D03*
%TD*%
D18*
%TO.N,/Dry_Buffered_Bypass*%
X137160000Y-83820000D03*
%TO.N,/Dry_In*%
X147320000Y-96520000D03*
%TO.N,/Wet_Left_In*%
X134620000Y-58420000D03*
%TO.N,/Wet_Right_In*%
X134620000Y-53340000D03*
%TO.N,/WDR_Out*%
X177800000Y-45720000D03*
%TO.N,/WDL_Out*%
X165100000Y-40900000D03*
%TD*%
D19*
%TO.N,/Wet_Left_In*%
X139700000Y-58415000D02*
X134625000Y-58415000D01*
X134625000Y-58415000D02*
X134620000Y-58420000D01*
%TO.N,/Wet_Right_In*%
X134620000Y-53340000D02*
X134625000Y-53335000D01*
X134625000Y-53335000D02*
X139700000Y-53335000D01*
%TO.N,/Dry_In*%
X165100000Y-91440000D02*
X162560000Y-91440000D01*
X167640000Y-91440000D02*
X165100000Y-91440000D01*
X165100000Y-91440000D02*
X165100000Y-88900000D01*
X149860000Y-83820000D02*
X152400000Y-86360000D01*
X152400000Y-86360000D02*
X152400000Y-91440000D01*
%TO.N,/Dry_Buffered_Bypass*%
X144780000Y-83820000D02*
X147320000Y-86360000D01*
X142240000Y-83820000D02*
X144780000Y-83820000D01*
X147320000Y-86360000D02*
X149860000Y-86360000D01*
X142240000Y-83820000D02*
X137160000Y-83820000D01*
%TO.N,/Dry_In*%
X147320000Y-96520000D02*
X152400000Y-91440000D01*
X152400000Y-91440000D02*
X162560000Y-91440000D01*
D20*
%TO.N,GND*%
X166240000Y-38100000D02*
X167640000Y-38100000D01*
X167640000Y-38100000D02*
X187960000Y-38100000D01*
X167640000Y-45720000D02*
X167640000Y-38100000D01*
X165100000Y-48260000D02*
X167640000Y-45720000D01*
X187960000Y-38100000D02*
X187960000Y-76200000D01*
X142240000Y-38100000D02*
X166240000Y-38100000D01*
D19*
%TO.N,/WDR_Out*%
X177800000Y-45720000D02*
X172720000Y-45720000D01*
D20*
%TO.N,GND*%
X187960000Y-86360000D02*
X187960000Y-83820000D01*
X187960000Y-83820000D02*
X187960000Y-76200000D01*
X170180000Y-78740000D02*
X170180000Y-81280000D01*
X172720000Y-83820000D02*
X187960000Y-83820000D01*
X170180000Y-81280000D02*
X172720000Y-83820000D01*
X165100000Y-76200000D02*
X170180000Y-76200000D01*
X165100000Y-78740000D02*
X165100000Y-76200000D01*
X170180000Y-76200000D02*
X170180000Y-78740000D01*
X187960000Y-104140000D02*
X187960000Y-86360000D01*
X187960000Y-114300000D02*
X187960000Y-104140000D01*
X167640000Y-114300000D02*
X187960000Y-114300000D01*
X187960000Y-104140000D02*
X177760000Y-104140000D01*
X167640000Y-48260000D02*
X170180000Y-50800000D01*
X165100000Y-48260000D02*
X167640000Y-48260000D01*
X170180000Y-50800000D02*
X172720000Y-50800000D01*
X132080000Y-38100000D02*
X142240000Y-38100000D01*
X132080000Y-45720000D02*
X132080000Y-38100000D01*
X142240000Y-38100000D02*
X142240000Y-40640000D01*
X144785000Y-50800000D02*
X144780000Y-50800000D01*
X144780000Y-50800000D02*
X144780000Y-48260000D01*
X144780000Y-48260000D02*
X142240000Y-45720000D01*
X132080000Y-45720000D02*
X132080000Y-114300000D01*
X142240000Y-45720000D02*
X132080000Y-45720000D01*
X147320000Y-53335000D02*
X144785000Y-50800000D01*
X154940000Y-114300000D02*
X132080000Y-114300000D01*
X157480000Y-114300000D02*
X167640000Y-114300000D01*
X167640000Y-114300000D02*
X167640000Y-109220000D01*
X154980000Y-114260000D02*
X154940000Y-114300000D01*
X154980000Y-101600000D02*
X154980000Y-114260000D01*
X154940000Y-114300000D02*
X157480000Y-114300000D01*
D19*
%TO.N,Net-(U5-CAP-)*%
X170180000Y-109220000D02*
X175260000Y-109220000D01*
%TO.N,/Dry_In*%
X170180000Y-88900000D02*
X167640000Y-91440000D01*
X170180000Y-86360000D02*
X170180000Y-88900000D01*
X165100000Y-88900000D02*
X165100000Y-86360000D01*
%TO.N,Net-(U1D--)*%
X162560000Y-76200000D02*
X162560000Y-78740000D01*
X160020000Y-73660000D02*
X162560000Y-76200000D01*
X160020000Y-68580000D02*
X160020000Y-73660000D01*
%TO.N,/Dry2*%
X160020000Y-66040000D02*
X160020000Y-50800000D01*
X160020000Y-76200000D02*
X157480000Y-73660000D01*
X157480000Y-68580000D02*
X160020000Y-66040000D01*
X157480000Y-73660000D02*
X157480000Y-68580000D01*
X160020000Y-76200000D02*
X160020000Y-78740000D01*
%TO.N,Net-(U1C--)*%
X175260000Y-73660000D02*
X175260000Y-68580000D01*
X172720000Y-78740000D02*
X172720000Y-76200000D01*
X172720000Y-76200000D02*
X175260000Y-73660000D01*
%TO.N,/Dry1*%
X175260000Y-76200000D02*
X177800000Y-73660000D01*
X177800000Y-73660000D02*
X177800000Y-63500000D01*
X175260000Y-78740000D02*
X175260000Y-76200000D01*
%TO.N,Net-(U3C--)*%
X149855000Y-60955000D02*
X149860000Y-60960000D01*
X152400000Y-63500000D02*
X149860000Y-60960000D01*
X147320000Y-60955000D02*
X149855000Y-60955000D01*
X157480000Y-63500000D02*
X152400000Y-63500000D01*
%TO.N,/WetR_Inv*%
X149860000Y-48260000D02*
X149860000Y-43180000D01*
X149855000Y-48255000D02*
X149860000Y-48260000D01*
X147320000Y-48255000D02*
X149855000Y-48255000D01*
%TO.N,Net-(U3D--)*%
X147320000Y-50795000D02*
X149855000Y-50795000D01*
X149855000Y-50795000D02*
X149860000Y-50800000D01*
X152400000Y-48260000D02*
X149860000Y-50800000D01*
X157480000Y-48260000D02*
X152400000Y-48260000D01*
%TO.N,/WetL_Inv*%
X147320000Y-63495000D02*
X149855000Y-63495000D01*
X149855000Y-63495000D02*
X149860000Y-63500000D01*
%TO.N,Net-(U4A--)*%
X157480000Y-43180000D02*
X160020000Y-43180000D01*
X160020000Y-43180000D02*
X162560000Y-45720000D01*
X162560000Y-45720000D02*
X165100000Y-45720000D01*
%TO.N,Net-(U4B--)*%
X175260000Y-55880000D02*
X175260000Y-50800000D01*
X170180000Y-63500000D02*
X170180000Y-60960000D01*
X175260000Y-50800000D02*
X172720000Y-48260000D01*
X170180000Y-60960000D02*
X175260000Y-55880000D01*
%TO.N,Net-(U1A--)*%
X160020000Y-86360000D02*
X162560000Y-86360000D01*
%TO.N,Net-(U3B--)*%
X139700000Y-60955000D02*
X139700000Y-63495000D01*
%TO.N,Net-(U3A--)*%
X139700000Y-50795000D02*
X139700000Y-48255000D01*
%TO.N,Net-(U1B--)*%
X172720000Y-86360000D02*
X175260000Y-86360000D01*
%TO.N,-8V*%
X175260000Y-104140000D02*
X170180000Y-104140000D01*
%TD*%
M02*
