M48
; DRILL file {KiCad 8.0.8} date 2025-02-20T08:22:23+0900
; FORMAT={-:-/ absolute / inch / decimal}
; #@! TF.CreationDate,2025-02-20T08:22:23+09:00
; #@! TF.GenerationSoftware,Kicad,Pcbnew,8.0.8
; #@! TF.FileFunction,Plated,1,2,PTH
FMAT,2
INCH
; #@! TA.AperFunction,Plated,PTH,ComponentDrill
T1C0.0276
; #@! TA.AperFunction,Plated,PTH,ComponentDrill
T2C0.0315
; #@! TA.AperFunction,Plated,PTH,ViaDrill
T3C0.0394
; #@! TA.AperFunction,Plated,PTH,ComponentDrill
T4C0.0394
%
G90
G05
T1
X5.9Y-1.7
X5.9Y-1.9
X5.9Y-2.0
X5.9Y-2.4
X5.9Y-2.5
X6.2Y-1.7
X6.2Y-1.9
X6.2Y-2.0
X6.2Y-2.4
X6.2Y-2.5
X6.3Y-1.7
X6.3Y-2.0
X6.3Y-2.7
X6.3Y-3.0
X6.4Y-2.4
X6.4Y-2.7
X6.4Y-3.0
X6.7Y-2.4
X6.7Y-2.5
X6.8Y-2.7
X6.8Y-3.0
X6.9Y-2.7
X6.9Y-3.0
X7.0Y-2.5
T2
X5.4Y-1.6
X5.4Y-2.7
X5.4Y-2.9
X5.5Y-1.7
X5.5Y-1.8998
X5.5Y-1.9998
X5.5Y-2.0998
X5.5Y-2.1998
X5.5Y-2.2998
X5.5Y-2.3998
X5.5Y-2.4998
X5.5Y-2.8
X5.6Y-1.6
X5.6Y-3.2
X5.6Y-3.3
X5.6Y-3.4
X5.6Y-3.5
X5.8Y-1.8998
X5.8Y-1.9998
X5.8Y-2.0998
X5.8Y-2.1998
X5.8Y-2.2998
X5.8Y-2.3998
X5.8Y-2.4998
X5.9Y-3.2
X5.9Y-3.3
X5.9Y-3.4
X5.9Y-3.5
X6.1016Y-4.0
X6.2Y-4.0
X6.3Y-3.1
X6.3Y-3.4
X6.4Y-3.1
X6.4Y-3.4
X6.4Y-4.0
X6.4Y-4.3
X6.5Y-1.7
X6.5Y-1.8
X6.5Y-1.9
X6.5Y-2.0
X6.5Y-3.1
X6.5Y-3.4
X6.5Y-4.0
X6.5Y-4.3
X6.6Y-3.1
X6.6Y-3.4
X6.6Y-4.0
X6.6Y-4.3
X6.7Y-3.1
X6.7Y-3.4
X6.7Y-4.0
X6.7Y-4.3
X6.8Y-1.7
X6.8Y-1.8
X6.8Y-1.9
X6.8Y-2.0
X6.8Y-3.1
X6.8Y-3.4
X6.9Y-3.1
X6.9Y-3.4
X6.9Y-4.1
X6.9Y-4.3
X6.9Y-4.3984
X6.9984Y-4.1
X7.2Y-3.0
X7.2Y-3.4
X7.3Y-3.1
X7.3Y-3.5
X7.4Y-3.0
X7.4Y-3.4
T3
X5.3Y-2.1
X5.3Y-2.3
X5.4Y-3.3
X5.8Y-3.8
X6.5Y-1.6102
X7.0Y-1.8
T4
X6.2Y-4.4
X6.2Y-4.5
M30
